<svg width="32" height="32" viewBox="0 0 32 32" fill="none" xmlns="http://www.w3.org/2000/svg">
<g clipPath="url(#clip0_154_153)">
<path d="M23.5426 3.21174H20.3455V1.59856C20.3455 1.38739 20.3037 1.17832 20.2224 0.983416C20.1412 0.788511 20.0221 0.611631 19.8721 0.463001C19.7221 0.31437 19.5442 0.196933 19.3485 0.117467C19.1529 0.0380007 18.9435 -0.00193105 18.7323 6.22139e-06H13.4821C13.0581 6.22139e-06 12.6515 0.168431 12.3518 0.468215C12.052 0.767998 11.8836 1.1746 11.8836 1.59856V3.21174H8.67184C8.24788 3.21174 7.84128 3.38017 7.5415 3.67995C7.24171 3.97973 7.07331 4.38633 7.07331 4.81029V30.4015C7.07137 30.6126 7.11128 30.8221 7.19075 31.0177C7.27021 31.2134 7.38767 31.3913 7.5363 31.5413C7.68493 31.6913 7.86177 31.8104 8.05667 31.8916C8.25158 31.9729 8.46068 32.0147 8.67184 32.0147H23.6159C23.8271 32.0147 24.0361 31.9729 24.231 31.8916C24.426 31.8104 24.6028 31.6913 24.7515 31.5413C24.9001 31.3913 25.0176 31.2134 25.097 31.0177C25.1765 30.8221 25.2164 30.6126 25.2145 30.4015V4.81029C25.2147 4.59405 25.171 4.38 25.0861 4.18112C25.0013 3.98224 24.8769 3.80265 24.7206 3.65321C24.5643 3.50377 24.3794 3.38761 24.1769 3.31173C23.9744 3.23584 23.7586 3.20182 23.5426 3.21174ZM12.8661 1.59856C12.87 1.4572 12.9288 1.32292 13.0302 1.22431C13.1315 1.1257 13.2674 1.07055 13.4088 1.0706H18.7323C18.8737 1.07055 19.0096 1.1257 19.1109 1.22431C19.2123 1.32292 19.2711 1.4572 19.275 1.59856V3.21174H12.8661V1.59856ZM24.0706 30.4015C24.0725 30.472 24.0603 30.5423 24.0347 30.608C24.009 30.6738 23.9704 30.7337 23.9212 30.7843C23.872 30.8349 23.8131 30.8751 23.7481 30.9026C23.6831 30.93 23.6132 30.9441 23.5426 30.9441H8.59853C8.52794 30.9441 8.45804 30.93 8.39301 30.9026C8.32798 30.8751 8.26912 30.8349 8.2199 30.7843C8.17068 30.7337 8.1321 30.6738 8.10644 30.608C8.08079 30.5423 8.06859 30.472 8.07055 30.4015V4.81029C8.0705 4.66889 8.12567 4.53303 8.22428 4.43168C8.32289 4.33033 8.45717 4.27148 8.59853 4.26766H23.5426C23.6839 4.27148 23.8183 4.33033 23.9169 4.43168C24.0155 4.53303 24.0706 4.66889 24.0706 4.81029V30.4015V30.4015Z" fill="white"/>
</g>
<defs>
<clipPath id="clip0_154_153">
<rect width="32" height="32" fill="white"/>
</clipPath>
</defs>
</svg>
