<svg width="32" height="32" viewBox="0 0 32 32" fill="none" xmlns="http://www.w3.org/2000/svg">
<g clipPath="url(#clip0_154_154)">
<path d="M16.6295 0.195574C16.5787 0.13275 16.5146 0.0820755 16.4417 0.0472647C16.3688 0.0124539 16.289 -0.00561523 16.2082 -0.00561523C16.1275 -0.00561523 16.0477 0.0124539 15.9748 0.0472647C15.9019 0.0820755 15.8378 0.13275 15.787 0.195574C15.3357 0.797361 5 14.7889 5 20.7917C5 23.7643 6.18084 26.6152 8.2828 28.7172C10.3848 30.8191 13.2356 32 16.2082 32C19.1809 32 22.0317 30.8191 24.1337 28.7172C26.2357 26.6152 27.4165 23.7643 27.4165 20.7917C27.4165 14.7889 17.0808 0.797361 16.6295 0.195574ZM16.2082 30.9318C13.5189 30.9318 10.9397 29.8635 9.03811 27.9619C7.13647 26.0602 6.06816 23.481 6.06816 20.7917C6.06816 15.7969 14.2224 4.24259 16.2082 1.42924C18.1941 4.16737 26.3484 15.7969 26.3484 20.7917C26.3484 22.1233 26.0861 23.4419 25.5765 24.6722C25.0669 25.9024 24.32 27.0203 23.3784 27.9619C22.4368 28.9035 21.3189 29.6504 20.0887 30.16C18.8584 30.6695 17.5399 30.9318 16.2082 30.9318V30.9318Z" fill="white"/>
</g>
<defs>
<clipPath id="clip0_154_154">
<rect width="32" height="32" fill="white"/>
</clipPath>
</defs>
</svg>
