<svg width="32" height="32" viewBox="0 0 32 32" fill="none" xmlns="http://www.w3.org/2000/svg">
<path d="M7 2C4.25003 2 2 4.25003 2 7V23C2 25.75 4.25003 28 7 28H23C25.75 28 28 25.75 28 23V7C28 4.25003 25.75 2 23 2H7ZM7 4H23C24.67 4 26 5.32997 26 7V23C26 24.67 24.67 26 23 26H19.8086V17.9336H22.6016L23.0195 14.7148H19.8086V12.6641C19.8086 11.7321 20.0681 11.0977 21.4141 11.0977H23.1328V8.21875C22.8348 8.17875 21.8149 8.09375 20.6289 8.09375C18.1529 8.09375 16.4609 9.59175 16.4609 12.3438V14.7148L14 14.707V17.9258L16.4609 17.9336V26H7C5.32997 26 4 24.67 4 23V7C4 5.32997 5.32997 4 7 4Z" fill="white"/>
</svg>
