<svg width="32" height="32" viewBox="0 0 32 32" fill="none" xmlns="http://www.w3.org/2000/svg">
<path d="M26.2043 13.623C26.1596 13.536 26.0913 13.4634 26.0072 13.4135C25.9232 13.3635 25.8267 13.3383 25.7289 13.3408H17.7066L19.8607 0.668518C19.8826 0.548972 19.8618 0.425563 19.8021 0.319722C19.7424 0.213881 19.6475 0.132294 19.5339 0.0891316C19.4229 0.042636 19.2995 0.03494 19.1835 0.0672905C19.0676 0.0996409 18.966 0.170145 18.8951 0.267403L6.07431 17.8273C6.01709 17.907 5.98288 18.0008 5.97543 18.0986C5.96797 18.1964 5.98753 18.2944 6.03201 18.3818C6.07648 18.4692 6.14415 18.5427 6.22759 18.5943C6.31103 18.6458 6.40707 18.6734 6.50515 18.6741H14.5274L12.3733 31.376C12.3515 31.4956 12.3722 31.619 12.4319 31.7248C12.4916 31.8307 12.5865 31.9123 12.7001 31.9554C12.7686 31.9708 12.8396 31.9708 12.9081 31.9554C12.9926 31.9561 13.076 31.9361 13.1511 31.8973C13.2261 31.8585 13.2907 31.8019 13.339 31.7326L26.13 14.143C26.1848 14.0694 26.2203 13.9833 26.2333 13.8925C26.2463 13.8016 26.2363 13.709 26.2043 13.623V13.623ZM13.8441 29.311L15.7159 18.2284C15.7305 18.1523 15.7273 18.0738 15.7067 17.9991C15.6861 17.9244 15.6486 17.8555 15.5971 17.7976C15.5474 17.7392 15.486 17.6919 15.4169 17.6586C15.3479 17.6253 15.2726 17.6069 15.196 17.6045H7.55991L18.4048 2.74837L16.533 13.8459C16.5184 13.922 16.5215 14.0004 16.5422 14.0751C16.5628 14.1498 16.6003 14.2188 16.6518 14.2767C16.7023 14.3331 16.7641 14.3781 16.8333 14.4089C16.9024 14.4396 16.9773 14.4553 17.053 14.455H24.6741L13.8441 29.311Z" fill="white"/>
</svg>
