<svg width="30" height="17" viewBox="0 0 30 17" fill="none" xmlns="http://www.w3.org/2000/svg">
<path d="M14.9994 6.26182C13.7183 6.26182 12.6752 7.2657 12.6752 8.5C12.6752 9.7343 13.7177 10.7382 14.9994 10.7382C16.2811 10.7382 17.3236 9.7343 17.3236 8.5C17.3236 7.2657 16.2811 6.26182 14.9994 6.26182ZM14.9994 9.75341C14.2816 9.75341 13.6973 9.19125 13.6973 8.49942C13.6973 7.80759 14.281 7.24544 14.9994 7.24544C15.7178 7.24544 16.3016 7.80759 16.3016 8.49942C16.3016 9.19125 15.7178 9.75341 14.9994 9.75341ZM14.9994 2.56818C11.6033 2.56818 8.84028 5.22899 8.84028 8.49942C8.84028 11.7699 11.6033 14.4307 14.9994 14.4307C18.3955 14.4307 21.1586 11.7699 21.1586 8.49942C21.1586 5.22899 18.3955 2.56818 14.9994 2.56818ZM14.9994 13.4465C12.1666 13.4465 9.8623 11.2274 9.8623 8.49942C9.8623 5.77145 12.1666 3.55238 14.9994 3.55238C17.8322 3.55238 20.1365 5.77145 20.1365 8.49942C20.1365 11.2274 17.8322 13.4465 14.9994 13.4465ZM29.8986 8.2059C28.1179 5.89419 25.6247 3.79553 22.8785 2.2955C20.1666 0.815727 17.3681 0 14.9994 0C12.6308 0 9.8112 0.831358 7.05056 2.34123C4.26046 3.86674 1.7914 5.95208 0.0966598 8.21169C-0.0301901 8.38132 -0.0325948 8.61 0.0918503 8.78136C1.68198 10.9773 4.12339 13.0447 6.96579 14.6026C9.78655 16.149 12.6398 17 15 17C19.866 17 26.9756 13.0777 29.916 8.77036C30.0338 8.59784 30.0272 8.37263 29.8992 8.20706L29.8986 8.2059ZM22.6591 13.6555C19.9351 15.1549 17.1432 16.0146 14.9994 16.0146C12.8556 16.0146 10.1016 15.1879 7.47079 13.7458C4.88269 12.3274 2.64929 10.4748 1.14272 8.50289C4.47388 4.26505 10.4887 0.984198 14.9994 0.984198C17.1943 0.984198 19.8131 1.75419 22.3741 3.15291C24.8883 4.52558 27.1782 6.4216 28.8591 8.51563C27.5089 10.3601 25.2707 12.2197 22.6591 13.6572V13.6555Z" fill="white"/>
</svg>
