<svg width="40" height="40" viewBox="0 0 40 40" fill="none" xmlns="http://www.w3.org/2000/svg">
<path d="M39.8306 19.0825C40.0847 18.6027 40.0282 18.0099 39.6895 17.5582L37.7699 15.1588C37.7699 15.1588 37.7135 15.0741 37.7135 15.0176L38.1087 11.9689C38.1651 11.4044 37.9111 10.8962 37.4312 10.614L34.7777 9.0896C34.7777 9.0896 34.693 9.00492 34.693 8.97669L33.9591 5.98445C33.8179 5.44811 33.3945 5.05291 32.8299 4.96822L29.8094 4.51656C29.8094 4.51656 29.6965 4.48833 29.6683 4.43188L27.9181 1.91953C27.6076 1.46787 27.043 1.24204 26.5067 1.35495L23.5145 2.03244C23.5145 2.03244 23.4015 2.03244 23.3451 2.00421L20.7763 0.225806C20.3246 -0.0847089 19.7036 -0.0847089 19.2519 0.225806L16.7114 1.94775C16.7114 1.94775 16.5984 1.97598 16.542 1.97598L13.5497 1.2985C13.0134 1.18558 12.4488 1.38318 12.1383 1.86307L10.3881 4.37542C10.3881 4.37542 10.3034 4.4601 10.247 4.4601L7.22653 4.91176C6.66195 4.99645 6.23852 5.39165 6.09738 5.92799L5.36343 8.92023C5.36343 8.92023 5.30698 9.03315 5.27875 9.03315L2.62526 10.5575C2.14537 10.8398 1.89131 11.3761 1.94777 11.9125L2.34297 14.9612C2.34297 14.9612 2.34297 15.0741 2.28651 15.1023L0.310506 17.5582C-0.0282382 17.9816 -0.0846955 18.5744 0.169362 19.0825L1.63725 21.7925C1.63725 21.7925 1.66548 21.9054 1.63725 21.9619L0.705707 24.8976C0.536335 25.434 0.705707 25.9986 1.12914 26.3655L3.47211 28.3698C3.47211 28.3698 3.52857 28.4545 3.52857 28.5109L3.69794 31.5878C3.72617 32.1524 4.09314 32.6323 4.62949 32.8017L7.53704 33.8179C7.53704 33.8179 7.62173 33.8744 7.64996 33.9308L8.92025 36.7255C9.14607 37.2336 9.65419 37.5441 10.2188 37.5441L13.2675 37.4312C13.2675 37.4312 13.3804 37.4312 13.4086 37.4876L15.6104 39.633C15.8645 39.8871 16.2315 40.0282 16.5702 40.0282C16.7396 40.0282 16.9372 40 17.1066 39.9153L19.9294 38.7015C19.9294 38.7015 20.0423 38.7015 20.0988 38.7015L22.9217 39.9153C23.4298 40.1411 24.0226 40.0282 24.4178 39.633L26.6196 37.4876C26.6196 37.4876 26.7043 37.4312 26.7608 37.4312L29.8094 37.5441C30.374 37.5441 30.8821 37.2336 31.108 36.7255L32.3783 33.9308C32.3783 33.9308 32.4347 33.8461 32.4912 33.8179L35.3987 32.8017C35.9351 32.6041 36.2738 32.1524 36.3303 31.5878L36.4996 28.5109C36.4996 28.5109 36.5279 28.398 36.5561 28.3698L38.8991 26.3655C39.3225 25.9986 39.4919 25.434 39.3225 24.8976L38.391 21.9619C38.391 21.9619 38.391 21.849 38.391 21.7925L39.8588 19.0825H39.8306ZM37.2336 22.3006L38.1651 25.2364C38.1651 25.2364 38.1651 25.4058 38.1087 25.4622L35.7657 27.4665C35.4834 27.7205 35.314 28.0593 35.2858 28.4262L35.1164 31.5032C35.1164 31.5032 35.06 31.6443 34.9753 31.6725L32.0677 32.6888C31.729 32.8017 31.4185 33.084 31.2773 33.4227L30.007 36.2173C30.007 36.2173 29.8941 36.3302 29.8094 36.3302L26.7608 36.2173C26.3938 36.2173 26.0268 36.3585 25.7445 36.6125L23.5427 38.7579C23.5427 38.7579 23.4015 38.8426 23.3169 38.7861L20.494 37.5723C20.1552 37.4312 19.76 37.4312 19.4213 37.5723L16.5984 38.7861C16.5984 38.7861 16.4291 38.7861 16.3726 38.7579L14.1708 36.6125C13.9167 36.3585 13.578 36.2173 13.211 36.2173H13.1545L10.1058 36.3302C10.1058 36.3302 9.93648 36.2738 9.90825 36.2173L8.63796 33.4227C8.49681 33.084 8.1863 32.8299 7.84756 32.6888L4.94 31.6725C4.94 31.6725 4.79886 31.5878 4.79886 31.5032L4.62949 28.4262C4.62949 28.0593 4.43189 27.6923 4.1496 27.4665L1.80662 25.4622C1.80662 25.4622 1.72194 25.3211 1.75017 25.2364L2.68171 22.3006C2.79463 21.9336 2.7664 21.5667 2.5688 21.2279L1.10091 18.518C1.10091 18.518 1.07268 18.3486 1.10091 18.2921L3.04869 15.8927C3.27451 15.6104 3.38743 15.2152 3.33097 14.8482L2.93577 11.7996C2.93577 11.7996 2.964 11.6302 3.04869 11.602L5.70218 10.0776C6.01269 9.88001 6.26675 9.56949 6.35144 9.20252L7.08538 6.21028C7.08538 6.21028 7.17007 6.06914 7.25475 6.06914L10.2752 5.61748C10.6422 5.56102 10.9809 5.36342 11.2068 5.05291L12.9569 2.54056C12.9569 2.54056 13.0981 2.42764 13.1545 2.45587L16.1468 3.13336C16.5138 3.21804 16.909 3.13336 17.2195 2.93576L19.76 1.21381C19.76 1.21381 19.9294 1.15735 19.9859 1.21381L22.5265 2.90753C22.837 3.10513 23.2322 3.18982 23.5991 3.10513L26.5914 2.42764C26.5914 2.42764 26.7608 2.42764 26.789 2.51233L28.5392 5.02468C28.765 5.33519 29.0755 5.53279 29.4707 5.58925L32.4912 6.04091C32.4912 6.04091 32.6323 6.1256 32.6605 6.18205L33.3945 9.17429C33.4792 9.54126 33.7332 9.85178 34.0437 10.0494L36.6972 11.5737C36.6972 11.5737 36.8102 11.6866 36.8102 11.7713L36.415 14.82C36.3585 15.187 36.4714 15.554 36.6972 15.8645L38.6168 18.2639C38.6168 18.2639 38.6732 18.4051 38.6168 18.4897L37.1489 21.1997C36.9795 21.5384 36.9231 21.9054 37.036 22.2724L37.2336 22.3006ZM7.22653 15.2999C7.22653 15.2999 7.25475 15.2152 7.31121 15.2152H8.66619C8.66619 15.2152 8.75087 15.2435 8.75087 15.2999V17.3888C8.75087 17.3888 8.75087 17.4453 8.80733 17.4453H10.4164C10.4164 17.4453 10.4728 17.4453 10.4728 17.3888V15.2999C10.4728 15.2999 10.501 15.2152 10.5575 15.2152H11.9125C11.9125 15.2152 11.9972 15.2435 11.9972 15.2999V21.0303C11.9972 21.0303 11.9689 21.115 11.9125 21.115H10.5575C10.5575 21.115 10.4728 21.0868 10.4728 21.0303V18.8567C10.4728 18.8567 10.4728 18.8003 10.4164 18.8003H8.80733C8.80733 18.8003 8.75087 18.8003 8.75087 18.8567V21.0303C8.75087 21.0303 8.72264 21.115 8.66619 21.115H7.31121C7.31121 21.115 7.22653 21.0868 7.22653 21.0303V15.2999ZM14.5942 15.2999C14.5942 15.2999 14.6507 15.2152 14.7071 15.2152H16.1186C16.1186 15.2152 16.2032 15.2435 16.2315 15.2999L18.2357 21.0303C18.2357 21.0303 18.2357 21.115 18.1792 21.115H16.7396C16.7396 21.115 16.6549 21.0868 16.6267 21.0303L16.3444 20.127H14.4248L14.1425 21.0303C14.1425 21.0303 14.0861 21.115 14.0296 21.115H12.6182C12.6182 21.115 12.5335 21.0868 12.5617 21.0303L14.5942 15.2999ZM15.9774 18.8567L15.4411 17.0219L14.8765 18.8567H16.0339H15.9774ZM18.3768 18.1792C18.3768 17.3041 18.4333 16.9936 18.5462 16.5984C18.8567 15.6387 19.6189 15.1305 20.6916 15.1305C21.7643 15.1305 22.47 15.6387 22.8087 16.4855C22.8087 16.542 22.8087 16.5702 22.7523 16.5984L21.5949 17.1065C21.5949 17.1065 21.5102 17.1065 21.482 17.0501C21.3126 16.7113 21.115 16.4855 20.7198 16.4855C20.3528 16.4855 20.127 16.6549 20.0141 16.9936C19.9576 17.163 19.9294 17.3606 19.9294 18.1792C19.9294 18.9979 19.9294 19.1672 20.0141 19.3648C20.127 19.7036 20.3528 19.8729 20.7198 19.8729C21.115 19.8729 21.3126 19.6753 21.482 19.3084C21.482 19.2519 21.5385 19.2237 21.5949 19.2519L22.7523 19.76C22.7523 19.76 22.8087 19.8165 22.8087 19.8729C22.47 20.7198 21.7361 21.2279 20.6916 21.2279C19.6471 21.2279 18.8567 20.7198 18.5462 19.76C18.4051 19.3648 18.3768 19.0543 18.3768 18.1792ZM23.3451 18.1792C23.3451 17.3041 23.4015 16.9936 23.5145 16.5984C23.825 15.6387 24.5871 15.1305 25.6598 15.1305C26.7325 15.1305 27.4382 15.6387 27.777 16.4855C27.777 16.542 27.777 16.5702 27.7205 16.5984L26.5632 17.1065C26.5632 17.1065 26.4785 17.1065 26.4502 17.0501C26.2809 16.7113 26.0833 16.4855 25.6881 16.4855C25.3211 16.4855 25.0953 16.6549 24.9823 16.9936C24.9259 17.163 24.8977 17.3606 24.8977 18.1792C24.8977 18.9979 24.8977 19.1672 24.9823 19.3648C25.0953 19.7036 25.3211 19.8729 25.6881 19.8729C26.0833 19.8729 26.2809 19.6753 26.4502 19.3084C26.4502 19.2519 26.5067 19.2237 26.5632 19.2519L27.7205 19.76C27.7205 19.76 27.777 19.8165 27.777 19.8729C27.4382 20.7198 26.7043 21.2279 25.6598 21.2279C24.6154 21.2279 23.825 20.7198 23.5145 19.76C23.3733 19.3648 23.3451 19.0543 23.3451 18.1792ZM28.5392 21.115C28.5392 21.115 28.4545 21.0868 28.4545 21.0303V15.2999C28.4545 15.2999 28.4827 15.2152 28.5392 15.2152H30.9104C32.35 15.2152 33.084 16.0339 33.084 17.163C33.084 18.2921 32.3218 19.139 30.9104 19.139H30.0353C30.0353 19.139 29.9788 19.139 29.9788 19.1955V21.0303C29.9788 21.0303 29.9506 21.115 29.8941 21.115H28.5392ZM31.5596 17.1912C31.5596 16.796 31.2773 16.5137 30.8257 16.5137H30.0353C30.0353 16.5137 29.9788 16.5137 29.9788 16.5702V17.8123C29.9788 17.8123 29.9788 17.8687 30.0353 17.8687H30.8257C31.3056 17.8687 31.5596 17.5864 31.5596 17.1912ZM8.66619 24.6718C8.66619 24.1355 8.66619 23.9661 8.75087 23.7403C8.92025 23.1757 9.3719 22.8934 9.96471 22.8934C10.5575 22.8934 10.9527 23.1757 11.1503 23.6556V23.712L10.614 23.9661H10.5575C10.4728 23.7403 10.3034 23.5709 10.0212 23.5709C9.7671 23.5709 9.59773 23.712 9.51305 23.9379C9.48482 24.0508 9.45659 24.1919 9.45659 24.6718C9.45659 25.1517 9.45659 25.2646 9.51305 25.4058C9.59773 25.6316 9.7671 25.7727 10.0212 25.7727C10.3034 25.7727 10.4728 25.6034 10.5575 25.3775C10.5575 25.3493 10.5857 25.3493 10.614 25.3775L11.1503 25.6316C11.1503 25.6316 11.1785 25.6598 11.1503 25.6881C10.9527 26.1679 10.5293 26.4502 9.96471 26.4502C9.40013 26.4502 8.94847 26.1679 8.75087 25.6034C8.66619 25.3775 8.66619 25.2082 8.66619 24.6718ZM11.6302 23.0346C11.6302 23.0346 11.6302 22.9781 11.6867 22.9781H13.8603C13.8603 22.9781 13.9167 22.9781 13.9167 23.0346V23.5709C13.9167 23.5709 13.9167 23.6274 13.8603 23.6274H12.3924C12.3924 23.6274 12.3641 23.6274 12.3641 23.6556V24.3331C12.3641 24.3331 12.3641 24.3613 12.3924 24.3613H13.6062C13.6062 24.3613 13.6627 24.3613 13.6627 24.4178V24.9541C13.6627 24.9541 13.6627 25.0106 13.6062 25.0106H12.3924C12.3924 25.0106 12.3641 25.0106 12.3641 25.0388V25.7445C12.3641 25.7445 12.3641 25.7727 12.3924 25.7727H13.8603C13.8603 25.7727 13.9167 25.7727 13.9167 25.8292V26.3655C13.9167 26.3655 13.9167 26.422 13.8603 26.422H11.6867C11.6867 26.422 11.6302 26.422 11.6302 26.3655V23.0628V23.0346ZM16.3444 26.3938C16.3444 26.3938 16.2879 26.3938 16.2597 26.3373L15.6669 25.0952H15.2152C15.2152 25.0952 15.187 25.0952 15.187 25.1235V26.3373C15.187 26.3373 15.187 26.3938 15.1305 26.3938H14.5095C14.5095 26.3938 14.4531 26.3938 14.4531 26.3373V23.0346C14.4531 23.0346 14.4531 22.9781 14.5095 22.9781H15.8645C16.5702 22.9781 17.0219 23.4015 17.0219 24.0226C17.0219 24.446 16.796 24.813 16.4291 24.9541L17.1066 26.2809C17.1066 26.2809 17.1066 26.3373 17.0783 26.3373H16.3726L16.3444 26.3938ZM16.2879 24.0508C16.2879 23.7967 16.1186 23.6274 15.8363 23.6274H15.2435C15.2435 23.6274 15.2152 23.6274 15.2152 23.6556V24.446C15.2152 24.446 15.2152 24.4742 15.2435 24.4742H15.8363C16.1186 24.4742 16.2879 24.3048 16.2879 24.0508ZM18.3204 26.3938C18.3204 26.3938 18.2639 26.3938 18.2639 26.3373V23.6838C18.2639 23.6838 18.2639 23.6556 18.2357 23.6556H17.3888C17.3888 23.6556 17.3324 23.6556 17.3324 23.5991V23.0346C17.3324 23.0346 17.3324 22.9781 17.3888 22.9781H19.9012C19.9012 22.9781 19.9576 22.9781 19.9576 23.0346V23.5991C19.9576 23.5991 19.9576 23.6556 19.9012 23.6556H19.0543C19.0543 23.6556 19.0261 23.6556 19.0261 23.6838V26.3373C19.0261 26.3373 19.0261 26.3938 18.9696 26.3938H18.3204ZM20.3528 23.0346C20.3528 23.0346 20.3528 22.9781 20.4093 22.9781H21.0303C21.0303 22.9781 21.0868 22.9781 21.0868 23.0346V26.3373C21.0868 26.3373 21.0868 26.3938 21.0303 26.3938H20.4093C20.4093 26.3938 20.3528 26.3938 20.3528 26.3373V23.0346ZM21.7361 23.0346C21.7361 23.0346 21.7361 22.9781 21.7925 22.9781H23.9661C23.9661 22.9781 24.0226 22.9781 24.0226 23.0346V23.5709C24.0226 23.5709 24.0226 23.6274 23.9661 23.6274H22.4982C22.4982 23.6274 22.47 23.6274 22.47 23.6556V24.3613C22.47 24.3613 22.47 24.3895 22.4982 24.3895H23.7121C23.7121 24.3895 23.7685 24.3895 23.7685 24.446V24.9823C23.7685 24.9823 23.7685 25.0388 23.7121 25.0388H22.4982C22.4982 25.0388 22.47 25.0388 22.47 25.067V26.3373C22.47 26.3373 22.47 26.3938 22.4135 26.3938H21.7925C21.7925 26.3938 21.7361 26.3938 21.7361 26.3373V23.0346ZM24.5307 23.0346C24.5307 23.0346 24.5307 22.9781 24.5871 22.9781H25.2082C25.2082 22.9781 25.2646 22.9781 25.2646 23.0346V26.3373C25.2646 26.3373 25.2646 26.3938 25.2082 26.3938H24.5871C24.5871 26.3938 24.5307 26.3938 24.5307 26.3373V23.0346ZM25.9139 23.0346C25.9139 23.0346 25.9139 22.9781 25.9704 22.9781H28.144C28.144 22.9781 28.2004 22.9781 28.2004 23.0346V23.5709C28.2004 23.5709 28.2004 23.6274 28.144 23.6274H26.6761C26.6761 23.6274 26.6478 23.6274 26.6478 23.6556V24.3331C26.6478 24.3331 26.6478 24.3613 26.6761 24.3613H27.8899C27.8899 24.3613 27.9464 24.3613 27.9464 24.4178V24.9541C27.9464 24.9541 27.9464 25.0106 27.8899 25.0106H26.6761C26.6761 25.0106 26.6478 25.0106 26.6478 25.0388V25.7445C26.6478 25.7445 26.6478 25.7727 26.6761 25.7727H28.144C28.144 25.7727 28.2004 25.7727 28.2004 25.8292V26.3655C28.2004 26.3655 28.2004 26.422 28.144 26.422H25.9704C25.9704 26.422 25.9139 26.422 25.9139 26.3655V23.0628V23.0346ZM28.7368 23.0346C28.7368 23.0346 28.7368 22.9781 28.7932 22.9781H30.0635C30.6563 22.9781 31.0797 23.2322 31.2491 23.7403C31.3056 23.9379 31.3338 24.1072 31.3338 24.6718C31.3338 25.2364 31.3056 25.4058 31.2491 25.6034C31.0797 26.1115 30.6563 26.3655 30.0635 26.3655H28.7932C28.7932 26.3655 28.7368 26.3655 28.7368 26.3091V23.0063V23.0346ZM29.4989 25.7163H29.8941C30.2329 25.7163 30.4305 25.6034 30.5152 25.3493C30.5434 25.2364 30.5716 25.1235 30.5716 24.6718C30.5716 24.2202 30.5716 24.1072 30.5152 23.9943C30.4305 23.712 30.2329 23.6274 29.8941 23.6274H29.4989C29.4989 23.6274 29.4707 23.6274 29.4707 23.6556V25.6881C29.4707 25.6881 29.4707 25.7163 29.4989 25.7163ZM19.9859 36.3302C10.9809 36.3302 3.66972 29.019 3.66972 20.0141C3.66972 11.0092 11.0092 3.6697 20.0141 3.6697C29.019 3.6697 36.3303 10.9809 36.3303 19.9859C36.3303 28.9908 29.019 36.302 20.0141 36.302L19.9859 36.3302ZM20.0141 4.4601C11.4326 4.4601 4.46012 11.4326 4.46012 20.0141C4.46012 28.5956 11.4326 35.5681 20.0141 35.5681C28.5956 35.5681 35.5681 28.5956 35.5681 20.0141C35.5681 11.4326 28.5674 4.4601 20.0141 4.4601Z" fill="white"/>
</svg>
