<svg width="40" height="40" viewBox="0 0 40 40" fill="none" xmlns="http://www.w3.org/2000/svg">
<path d="M20.0141 1.24206C22.5547 1.24206 25.0106 1.75018 27.3253 2.70995C29.5554 3.6415 31.5596 4.99647 33.2816 6.71842C35.0035 8.44037 36.3585 10.4446 37.2901 12.6747C38.2781 14.9894 38.7579 17.4453 38.7579 19.9859C38.7579 22.5265 38.2498 24.9824 37.2901 27.2971C36.3585 29.5272 35.0035 31.5314 33.2816 33.2534C31.5596 34.9753 29.5554 36.3303 27.3253 37.2618C25.0106 38.2498 22.5547 38.7297 20.0141 38.7297C17.4735 38.7297 15.0176 38.2216 12.7029 37.2618C10.4728 36.3303 8.4686 34.9753 6.74665 33.2534C5.0247 31.5314 3.66972 29.5272 2.73818 27.2971C1.75018 24.9824 1.27029 22.5265 1.27029 19.9859C1.27029 17.4453 1.77841 14.9894 2.73818 12.6747C3.66972 10.4446 5.0247 8.44037 6.74665 6.71842C8.4686 4.99647 10.4728 3.6415 12.7029 2.70995C15.0176 1.72195 17.4735 1.24206 20.0141 1.24206ZM20.0141 0C8.94848 0 0 8.94848 0 20.0141C0 31.0797 8.94848 40.0282 20.0141 40.0282C31.0797 40.0282 40.0282 31.0797 40.0282 20.0141C40.0282 8.94848 31.0515 0 20.0141 0V0ZM4.34721 17.0783C3.89555 16.9654 3.72618 16.8807 3.52858 16.7678C3.07692 16.4855 2.93578 15.9774 3.07692 15.4411C3.21807 14.8765 3.61327 14.566 4.0367 14.5095C4.06493 14.5095 4.09315 14.5095 4.09315 14.5378L4.17784 15.0741C4.17784 15.0741 4.17784 15.1306 4.14961 15.1306C3.89555 15.187 3.75441 15.3282 3.69795 15.5822C3.61327 15.8363 3.69795 16.0339 3.89555 16.175C4.00847 16.2315 4.14961 16.2879 4.54481 16.4008C4.94001 16.5138 5.10939 16.542 5.2223 16.542C5.44813 16.542 5.6175 16.4008 5.70219 16.1186C5.75865 15.8927 5.70219 15.6669 5.50459 15.5258C5.4199 15.4693 5.33522 15.4411 5.2223 15.4128H5.19407L5.08116 15.8363C5.08116 15.8363 5.05293 15.8645 5.0247 15.8645L4.60127 15.7516C4.60127 15.7516 4.57304 15.7234 4.57304 15.6951L4.85533 14.6224C4.85533 14.6224 4.88356 14.5942 4.91179 14.5942L5.16584 14.6507C5.44813 14.7354 5.67396 14.82 5.84333 14.9047C6.29499 15.187 6.46436 15.6951 6.32322 16.2315C6.18208 16.7678 5.8151 17.1348 5.27876 17.163C5.05293 17.163 4.88356 17.163 4.40367 17.0219L4.34721 17.0783ZM6.18208 14.4248C6.0127 14.4248 5.87156 14.3402 5.64573 14.2555C5.44813 14.1708 5.30699 14.0579 5.19407 13.945C4.88356 13.6344 4.8271 13.211 5.05293 12.7876C5.25053 12.3642 5.6175 12.1101 6.06916 12.1665C6.23853 12.1665 6.37968 12.2512 6.6055 12.3359C6.8031 12.4206 6.94425 12.5335 7.05716 12.6464C7.36768 12.957 7.42414 13.3804 7.19831 13.8038C7.00071 14.2272 6.63373 14.4813 6.18208 14.4248ZM6.6055 13.1546C6.6055 13.1546 6.43613 13.0416 6.26676 12.957C6.09739 12.8723 6.0127 12.844 5.89979 12.8158C5.73042 12.8158 5.58927 12.8723 5.53282 13.0134C5.47636 13.1546 5.47636 13.3239 5.58927 13.4368C5.67396 13.5215 5.75865 13.5498 5.92802 13.6344C6.09739 13.7191 6.18208 13.7474 6.29499 13.7756C6.46436 13.7756 6.6055 13.7191 6.66196 13.578C6.74665 13.4086 6.71842 13.2675 6.6055 13.1546ZM7.31122 12.1665C7.14185 12.1101 7.00071 12.0536 6.83133 11.9125C6.66196 11.7713 6.52082 11.6584 6.43613 11.5455C6.18208 11.2068 6.2103 10.7551 6.49259 10.3599C6.77488 9.96472 7.17008 9.79534 7.59351 9.93649C7.76288 9.99294 7.90402 10.0494 8.07339 10.1905C8.24277 10.3317 8.38391 10.4446 8.4686 10.5575C8.72265 10.8963 8.69442 11.3479 8.41214 11.7431C8.12985 12.1383 7.73465 12.3077 7.31122 12.1665ZM7.96048 10.9809C7.96048 10.9809 7.81934 10.8398 7.67819 10.7269C7.50882 10.614 7.45236 10.5575 7.33945 10.5293C7.17008 10.4728 7.02893 10.5293 6.94425 10.6704C6.85956 10.8116 6.83133 10.9527 6.94425 11.0939C7.00071 11.1785 7.08539 11.235 7.22653 11.3479C7.39591 11.4608 7.45236 11.5173 7.56528 11.5455C7.73465 11.602 7.87579 11.5455 7.96048 11.4044C8.04517 11.2632 8.07339 11.1221 7.96048 10.9809ZM10.247 9.54128H10.1905L10.0776 9.42837C10.1059 9.62597 10.0776 9.82357 9.82357 10.0494C9.54128 10.3035 9.23077 10.3599 8.89203 10.1905C8.72265 10.1059 8.58151 9.99294 8.38391 9.79534C8.18631 9.59774 8.07339 9.4566 7.98871 9.28723C7.81934 8.94848 7.87579 8.63797 8.15808 8.35568C8.38391 8.15808 8.58151 8.10162 8.77911 8.12985L8.01694 7.36768V7.31122L8.41214 6.91602H8.4686L10.6422 9.11786V9.17431L10.247 9.56951V9.54128ZM9.6542 9.0614C9.6542 9.0614 9.54128 8.89202 9.40014 8.75088C9.259 8.60974 9.17431 8.55328 9.08963 8.49682C8.94848 8.41214 8.80734 8.44037 8.6662 8.55328C8.55328 8.6662 8.49682 8.80734 8.58151 8.97671C8.63797 9.0614 8.69443 9.14608 8.83557 9.28723C8.97671 9.42837 9.0614 9.48483 9.14608 9.54128C9.28723 9.62597 9.42837 9.59774 9.56951 9.4566C9.68243 9.34368 9.71066 9.20254 9.6542 9.03317V9.0614ZM10.5011 5.27876V5.2223L10.9809 4.96824C10.9809 4.96824 11.0374 4.96824 11.0656 4.96824L12.6464 6.18208L12.4771 4.20607C12.4771 4.20607 12.4771 4.14961 12.5335 4.12138L13.0134 3.86733H13.0699L14.5378 6.6055V6.66196L14.0579 6.91602H14.0014L13.1546 5.33522L13.2675 6.80311C13.2675 6.80311 13.2675 6.88779 13.211 6.88779L12.9287 7.02893C12.9287 7.02893 12.844 7.02893 12.8158 7.02893L11.6584 6.12562L12.5053 7.70642V7.76288L12.0254 8.01694H11.9689L10.5011 5.27876ZM16.4008 6.12562C16.4008 6.12562 16.3444 6.12562 16.3444 6.09739V5.95625H16.2879C16.2032 6.12562 16.0621 6.29499 15.7516 6.37968C15.3564 6.49259 14.9612 6.37968 14.82 5.92802C14.6789 5.44813 14.9894 5.10939 15.5258 4.96824L15.921 4.85533C15.921 4.85533 15.921 4.85533 15.921 4.8271V4.74241C15.8363 4.54481 15.7234 4.46013 15.3564 4.57304C15.1306 4.6295 14.9894 4.74241 14.9047 4.85533C14.9047 4.85533 14.8765 4.85533 14.8483 4.85533L14.5378 4.54481V4.48836C14.6789 4.29076 14.933 4.14961 15.2717 4.0367C15.9774 3.8391 16.3162 4.00847 16.4573 4.54481L16.8525 5.92802C16.8525 5.92802 16.8525 5.98447 16.8243 5.98447L16.3162 6.12562H16.4008ZM16.1468 5.4199L16.0903 5.27876C16.0903 5.27876 16.0903 5.27876 16.0621 5.27876L15.7516 5.36344C15.4975 5.44813 15.3846 5.56104 15.4411 5.73042C15.4975 5.87156 15.6104 5.92802 15.8363 5.87156C16.1186 5.78687 16.2032 5.64573 16.1468 5.44813V5.4199ZM18.885 5.70219C18.885 5.70219 18.8285 5.70219 18.8285 5.67396L18.6874 4.37544C18.6874 4.12138 18.518 3.98024 18.2922 4.00847C18.0663 4.00847 17.9534 4.20607 17.9817 4.46013L18.1228 5.75865C18.1228 5.75865 18.1228 5.8151 18.0946 5.8151L17.53 5.87156C17.53 5.87156 17.4735 5.87156 17.4735 5.84333L17.2477 3.66972C17.2477 3.66972 17.2477 3.61327 17.2759 3.61327L17.8405 3.55681C17.8405 3.55681 17.897 3.55681 17.897 3.58504V3.75441C17.9817 3.61327 18.151 3.47212 18.4615 3.4439C18.9697 3.38744 19.2802 3.69795 19.3084 4.20607L19.4495 5.6175C19.4495 5.6175 19.4495 5.67396 19.4213 5.67396L18.8567 5.73042L18.885 5.70219ZM21.3973 5.70219C21.3973 5.70219 21.3409 5.70219 21.3409 5.64573V5.47636C21.1997 5.6175 21.0303 5.73042 20.7481 5.70219C20.2399 5.67396 20.0141 5.30699 20.0423 4.79887L20.127 3.35921C20.127 3.35921 20.127 3.30275 20.1835 3.30275H20.7481C20.7481 3.30275 20.8045 3.35921 20.8045 3.38744L20.7198 4.68596C20.7198 4.94001 20.8045 5.10939 21.0303 5.10939C21.2562 5.10939 21.3973 4.96824 21.3973 4.71418L21.482 3.41567C21.482 3.41567 21.482 3.35921 21.5385 3.35921H22.103C22.103 3.35921 22.1595 3.41567 22.1595 3.4439L22.0183 5.6175C22.0183 5.6175 22.0183 5.67396 21.9619 5.67396H21.3973V5.70219ZM22.6958 5.84333C22.6958 5.84333 22.6676 5.84333 22.6676 5.78687L23.0346 4.12138V4.09315H22.8934C22.8934 4.09315 22.8652 4.0367 22.8652 4.00847L22.9499 3.6415C22.9499 3.6415 22.9499 3.61327 23.0064 3.61327H23.1475H23.1757V3.50035C23.3169 2.96401 23.6274 2.79464 24.1355 2.90755L24.3896 2.96401C24.3896 2.96401 24.4178 2.96401 24.4178 3.02047L24.3331 3.4439C24.3331 3.4439 24.3331 3.47212 24.2766 3.47212H24.1355C23.9379 3.38744 23.8814 3.4439 23.825 3.61327V3.72618V3.75441L24.192 3.8391C24.192 3.8391 24.2202 3.8391 24.2202 3.89555L24.1355 4.26253C24.1355 4.26253 24.1355 4.29076 24.079 4.29076L23.7121 4.20607H23.6838L23.3169 5.87156C23.3169 5.87156 23.3169 5.89979 23.2604 5.89979L22.7241 5.78687L22.6958 5.84333ZM25.3493 6.6055C25.3493 6.6055 25.3211 6.57728 25.3493 6.54905L25.4058 6.4079C25.2364 6.52082 25.0388 6.52082 24.7283 6.4079C24.3613 6.26676 24.079 5.95625 24.2484 5.50459C24.4178 5.0247 24.8694 4.94001 25.3776 5.13761L25.7445 5.27876H25.7728V5.19407C25.8857 4.99647 25.801 4.85533 25.4622 4.74241C25.2364 4.65773 25.067 4.65773 24.9259 4.71418C24.8977 4.71418 24.8694 4.71418 24.8694 4.68596L24.813 4.26253C24.813 4.26253 24.813 4.20607 24.8412 4.20607C25.067 4.14961 25.3493 4.14961 25.7163 4.29076C26.422 4.54481 26.5632 4.88356 26.3938 5.4199L25.8857 6.77488C25.8857 6.77488 25.8574 6.80311 25.8292 6.77488L25.3493 6.6055ZM25.5469 5.87156L25.6034 5.73042V5.70219L25.2929 5.58927C25.0388 5.50459 24.8977 5.53282 24.813 5.70219C24.7565 5.84333 24.813 5.95625 25.0388 6.04093C25.2929 6.12562 25.4622 6.09739 25.5469 5.89979V5.87156ZM26.6196 6.49259C26.6196 6.35145 26.7043 6.18207 26.8172 5.98447C26.9301 5.78687 27.043 5.64573 27.156 5.53282C27.4947 5.2223 27.9181 5.2223 28.3133 5.44813C28.6521 5.64573 28.8215 5.95625 28.8497 6.23853C28.8497 6.23853 28.8497 6.29499 28.8215 6.29499H28.3416H28.2851C28.2851 6.12562 28.2004 6.0127 28.0593 5.95625C27.9181 5.87156 27.7488 5.87156 27.6359 5.98447C27.5512 6.04093 27.4947 6.12562 27.41 6.29499C27.3253 6.46436 27.2689 6.54905 27.2689 6.66196C27.2406 6.83133 27.2971 6.97248 27.4665 7.05716C27.6076 7.14185 27.7205 7.14185 27.8899 7.05716H27.9464L28.1722 7.48059V7.53705C27.9181 7.67819 27.5512 7.67819 27.2124 7.48059C26.789 7.25476 26.5914 6.85956 26.6761 6.43613L26.6196 6.49259ZM28.8779 8.6662C28.4545 8.35568 28.4545 8.04517 28.765 7.62174L29.386 6.80311C29.386 6.80311 29.386 6.80311 29.386 6.77488L29.2731 6.69019V6.63373L29.4989 6.32322H29.5554L29.6683 6.4079C29.6683 6.4079 29.6683 6.4079 29.6965 6.4079L30.0635 5.92802H30.12L30.5716 6.26676V6.32322L30.2047 6.80311C30.2047 6.80311 30.2047 6.80311 30.2047 6.83133L30.4305 7.00071V7.05716L30.2047 7.36768H30.1482L29.9224 7.19831C29.9224 7.19831 29.9224 7.19831 29.8941 7.19831L29.3013 7.98871C29.3013 7.98871 29.2167 8.21454 29.3296 8.29922L29.4143 8.35568V8.41214L29.132 8.77911H29.0755L28.8779 8.63797V8.6662ZM30.4587 10.0776V10.0212L30.5716 9.90826C30.374 9.90826 30.1764 9.90826 29.9788 9.68243C29.6119 9.31546 29.6965 8.89202 30.0353 8.55328L31.0515 7.53705H31.108L31.5032 7.93225V7.98871L30.5716 8.92025C30.4023 9.08963 30.374 9.28723 30.5152 9.4566C30.6845 9.62597 30.8821 9.59774 31.0515 9.40014L31.9831 8.4686H32.0395L32.4347 8.8638V8.92025L30.8821 10.4446H30.8257L30.4305 10.0494L30.4587 10.0776ZM31.2491 10.9809V10.9245L32.9993 9.6542H33.0558L33.3945 10.1059V10.1623L33.2251 10.2752C33.4227 10.2752 33.6486 10.3599 33.8179 10.5857C33.9026 10.6987 33.9591 10.868 33.9308 10.9809C33.9308 11.0092 33.9308 11.0374 33.8744 11.0374L33.338 11.0939C33.338 11.0939 33.3098 11.0939 33.2816 11.0374C33.2816 10.8963 33.2534 10.8116 33.1687 10.6987C33.0275 10.5011 32.8017 10.5293 32.5759 10.6987L31.6161 11.4044H31.5596L31.2209 10.9527L31.2491 10.9809ZM32.3783 12.6182V12.5617L34.2696 11.4891H34.326L34.6083 11.9689V12.0254L32.717 13.0981H32.6605L32.3783 12.6182ZM34.6648 11.3197V11.2632L35.06 11.0374H35.1164L35.3987 11.5173V11.5737L35.0035 11.7996H34.9471L34.6648 11.3197ZM33.4792 14.9612V14.9047L34.693 14.4248C34.9188 14.3402 35.0318 14.1708 34.9471 13.945C34.8624 13.7474 34.6648 13.6627 34.439 13.7756L33.2251 14.2555H33.1687L32.9711 13.7191V13.6627L35.0035 12.844H35.06L35.2576 13.3804V13.4368L35.1164 13.4933C35.2858 13.5498 35.4552 13.6627 35.5681 13.945C35.7657 14.4248 35.5399 14.7918 35.06 14.9894L33.7332 15.5258H33.6768L33.4792 14.9894V14.9612ZM33.3098 16.1186C33.3098 16.1186 33.338 16.1186 33.3663 16.1186L33.7615 16.3726C33.7615 16.3726 33.7897 16.4008 33.7615 16.4291C33.6768 16.5984 33.6203 16.7396 33.6768 16.9372C33.7332 17.2477 33.9308 17.3606 34.2696 17.2759H34.4672V17.2195C34.2978 17.163 34.1567 16.9936 34.1002 16.7114C34.0155 16.3444 34.1567 16.0339 34.4954 15.8645C34.6366 15.7798 34.8059 15.7234 35.0318 15.6669C35.2576 15.6104 35.427 15.6104 35.5963 15.6387C35.9633 15.6669 36.2174 15.8927 36.2738 16.2597C36.3303 16.542 36.2738 16.7396 36.1327 16.8807H36.302H36.3585L36.4714 17.4453C36.4714 17.4453 36.4714 17.5018 36.4432 17.5018L34.4954 17.897C33.7615 18.0381 33.3098 17.7558 33.1404 17.0219C33.084 16.6831 33.1404 16.3162 33.3098 16.1186ZM34.9753 17.0783C34.9753 17.0783 35.1447 17.0783 35.2858 17.0783C35.427 17.0501 35.5116 17.0219 35.5963 16.9654C35.7375 16.8807 35.7939 16.7678 35.7657 16.5984C35.7375 16.4291 35.6246 16.3444 35.4552 16.3162C35.3705 16.3162 35.2858 16.3162 35.1447 16.3162C35.0035 16.3444 34.9188 16.3726 34.8342 16.4291C34.693 16.5138 34.6366 16.6267 34.6648 16.796C34.693 16.9654 34.8059 17.0501 34.9753 17.0783ZM34.3825 19.6471C34.3825 19.6471 34.3825 19.5907 34.439 19.5907L37.5159 19.7601C37.5159 19.7601 37.5723 19.7601 37.5723 19.8165L37.4876 21.0586C37.4594 21.7643 37.0078 22.1313 36.3867 22.103C35.7939 22.0748 35.3987 21.6231 35.427 20.9457V20.3811V20.3529L34.3543 20.2964C34.3543 20.2964 34.2978 20.2964 34.2978 20.2399V19.6471H34.3825ZM36.4714 21.4255C36.7255 21.4255 36.9231 21.2844 36.9231 20.9739V20.4375V20.4093L36.1327 20.3529H36.1044V20.8892C36.048 21.1715 36.2174 21.3691 36.4714 21.3691V21.4255ZM34.1567 22.4135C34.1567 22.4135 34.1849 22.3853 34.2131 22.3853L36.3303 22.8652C36.3303 22.8652 36.3585 22.8934 36.3585 22.9217L36.2456 23.458C36.2456 23.458 36.2174 23.4862 36.1891 23.4862L35.9915 23.4298C36.1327 23.5709 36.2174 23.7968 36.1327 24.079C36.1044 24.2202 36.0198 24.3613 35.9068 24.446H35.8504L35.4552 24.079C35.4552 24.079 35.4552 24.0508 35.4552 24.0226C35.5399 23.9379 35.5963 23.825 35.6246 23.7121C35.681 23.4862 35.5116 23.3169 35.2294 23.2604L34.072 23.0064C34.072 23.0064 34.0438 22.9781 34.0438 22.9499L34.1567 22.4135ZM33.2534 25.4058C33.2534 25.4058 33.2816 25.3776 33.3098 25.4058L33.451 25.4622C33.3663 25.2929 33.338 25.067 33.451 24.7848C33.5921 24.4178 33.9308 24.1637 34.3825 24.3331C34.8624 24.5025 34.9188 24.9541 34.7212 25.4905L34.5801 25.8574V25.8857H34.6648C34.8624 25.9986 35.0035 25.9421 35.1164 25.6034C35.2011 25.3776 35.2011 25.2082 35.1729 25.067C35.1729 25.0388 35.1729 25.0106 35.2011 25.0106L35.6246 24.9541C35.6246 24.9541 35.681 24.9541 35.681 24.9824C35.7375 25.2082 35.7092 25.4905 35.5963 25.8574C35.314 26.5349 35.0035 26.7043 34.4672 26.5067L33.1122 25.9704C33.1122 25.9704 33.084 25.9421 33.1122 25.9139L33.3098 25.434L33.2534 25.4058ZM33.9873 25.6316L34.1284 25.6881H34.1567L34.2696 25.3776C34.3825 25.1235 34.3543 24.9824 34.1849 24.8977C34.0438 24.8412 33.9308 24.8977 33.8462 25.1235C33.7332 25.3776 33.7897 25.5469 33.9873 25.6316ZM33.338 26.6761C33.338 26.6761 33.6486 26.7608 33.8462 26.9019C34.0438 27.0148 34.1849 27.1277 34.2696 27.2406C34.5519 27.5794 34.5801 28.0028 34.326 28.398C34.1284 28.7368 33.8179 28.9061 33.5074 28.9061C33.5074 28.9061 33.451 28.9061 33.451 28.8779V28.398V28.3416C33.6203 28.3416 33.7332 28.2851 33.8179 28.144C33.9026 28.0028 33.9026 27.8335 33.7897 27.7205C33.7332 27.6358 33.6486 27.5794 33.4792 27.4947C33.3098 27.41 33.2251 27.3536 33.1122 27.3253C32.9428 27.2971 32.8017 27.3536 32.717 27.4947C32.6323 27.6359 32.6323 27.7488 32.717 27.9181V27.9746L32.2654 28.2004H32.2089C32.0677 27.9464 32.0677 27.5794 32.2936 27.2406C32.5476 26.8172 32.9146 26.6196 33.338 26.7325V26.6761ZM31.108 28.8779C31.4467 28.4545 31.729 28.4545 32.1524 28.765L32.9711 29.4143C32.9711 29.4143 32.9711 29.4143 32.9993 29.4143L33.084 29.3013H33.1404L33.451 29.5554V29.6119L33.3663 29.7248C33.3663 29.7248 33.3663 29.7248 33.3663 29.753L33.8462 30.12V30.1764L33.5074 30.6281H33.451L32.9711 30.2611C32.9711 30.2611 32.9711 30.2611 32.9428 30.2611L32.7735 30.4869H32.717L32.4065 30.2329V30.1764L32.5759 29.9506C32.5759 29.9506 32.5759 29.9506 32.5759 29.9224L31.7855 29.3013C31.7855 29.3013 31.5879 29.2167 31.4749 29.3013L31.4185 29.386H31.362L30.9951 29.1037V29.0473L31.1362 28.8497L31.108 28.8779ZM30.5716 29.5272H30.6281L32.2089 31.0233V31.0797L31.8137 31.4749H31.7572L30.1764 29.9788V29.9224L30.5716 29.5272ZM32.463 31.362H32.5194L32.8582 31.6725V31.729L32.463 32.1242H32.4065L32.0677 31.8137V31.7572L32.463 31.362ZM30.1482 30.8257C30.1482 30.8257 30.4023 31.0233 30.5434 31.1927C30.6845 31.362 30.7692 31.5314 30.8257 31.6725C30.9951 32.096 30.8257 32.4912 30.4587 32.8017C30.1482 33.0558 29.8095 33.1122 29.5272 33.0275C29.5272 33.0275 29.4989 33.0275 29.4989 32.9711L29.6401 32.5194C29.6401 32.5194 29.6683 32.463 29.6965 32.4912C29.8659 32.5476 29.9788 32.4912 30.0917 32.4065C30.2329 32.2936 30.2611 32.1524 30.2047 31.9831C30.1764 31.8984 30.12 31.8137 29.9788 31.6443C29.8659 31.5032 29.7812 31.4185 29.6965 31.362C29.5554 31.2773 29.4143 31.2773 29.2731 31.3903C29.132 31.5032 29.1037 31.6161 29.132 31.7572C29.132 31.7855 29.132 31.8137 29.0755 31.8137L28.5956 31.8701C28.5956 31.8701 28.5392 31.8701 28.5392 31.8137C28.5109 31.5314 28.6239 31.1927 28.9344 30.9386C29.3013 30.6281 29.7248 30.5716 30.0917 30.8257H30.1482ZM28.398 32.2089C28.398 32.2089 28.6239 32.4347 28.7368 32.6323C28.8497 32.8299 28.9061 32.9993 28.9344 33.1404C29.0191 33.5639 28.8215 33.9308 28.4263 34.1849C28.0028 34.439 27.5794 34.4107 27.2689 34.1284C27.156 34.0155 27.043 33.9026 26.8454 33.5639V33.5074L28.0311 32.8017C28.0311 32.8017 28.0311 32.8017 28.0311 32.7735C28.0311 32.7452 27.9746 32.717 27.9464 32.6888C27.8052 32.5476 27.5794 32.5476 27.3818 32.6888C27.1842 32.8017 27.0995 32.9428 27.043 33.1122C27.043 33.1122 27.0148 33.1687 26.9866 33.1404L26.5632 33.0558C26.5632 33.0558 26.5067 33.0275 26.5349 32.9993C26.5914 32.6888 26.8172 32.4065 27.1842 32.1807C27.6359 31.9266 28.0593 31.9548 28.3698 32.2371L28.398 32.2089ZM27.6359 33.5639C27.6359 33.5639 27.6359 33.5639 27.6359 33.5921C27.6641 33.6486 27.6923 33.705 27.7488 33.7332C27.8617 33.8462 28.0311 33.8462 28.2004 33.7332C28.3698 33.6486 28.4263 33.4792 28.398 33.338C28.398 33.2816 28.3698 33.2534 28.3416 33.1687C28.3416 33.1687 28.3416 33.1687 28.3133 33.1687L27.6641 33.5356L27.6359 33.5639ZM25.434 34.8342C25.5752 35.314 25.6034 35.4834 25.5752 35.681C25.5752 36.2174 25.2364 36.5843 24.7001 36.7255C24.192 36.8666 23.7403 36.7255 23.4298 36.3303V36.2738L23.8532 35.9068H23.9097C24.0508 36.0762 24.2484 36.1891 24.5025 36.1327C24.7283 36.0762 24.8694 35.9068 24.8694 35.6528C24.8694 35.5399 24.8694 35.427 24.7283 34.9753C24.5872 34.5236 24.5589 34.439 24.5025 34.326C24.3896 34.1284 24.192 34.0438 23.9379 34.1284C23.6838 34.2131 23.5709 34.3825 23.5427 34.6083C23.5427 34.6366 23.5427 34.6648 23.4862 34.6366L22.9217 34.5519C22.9217 34.5519 22.8652 34.5519 22.8934 34.4954C22.9499 34.0155 23.2604 33.6486 23.7685 33.5074C24.3049 33.3663 24.7565 33.5074 25.067 33.9591C25.18 34.1284 25.2646 34.2978 25.3776 34.7777L25.434 34.8342ZM22.47 34.5519C22.47 34.5519 22.5829 34.8342 22.6112 35.0882C22.6112 35.314 22.6112 35.4834 22.6112 35.6246C22.5265 36.048 22.1877 36.302 21.7078 36.3585C21.1997 36.415 20.8327 36.1891 20.6634 35.8222C20.6069 35.681 20.5505 35.5116 20.5222 35.1447C20.5222 35.1447 20.5222 35.0882 20.5787 35.0882L21.9337 34.9471C21.9337 34.9471 21.9337 34.9471 21.9337 34.9188C21.9337 34.8624 21.9337 34.8342 21.9054 34.8059C21.8207 34.6083 21.6514 34.5236 21.3973 34.5519C21.1715 34.5519 21.0303 34.6648 20.8892 34.8059H20.8327L20.494 34.5519V34.4954C20.6916 34.2414 21.0021 34.072 21.4255 34.0155C21.9337 33.9591 22.3289 34.1849 22.4982 34.5801L22.47 34.5519ZM21.1997 35.4552C21.1997 35.4552 21.1997 35.4552 21.1997 35.4834C21.1997 35.5399 21.1997 35.5963 21.2279 35.6528C21.2844 35.7939 21.4538 35.8786 21.6231 35.8786C21.8207 35.8786 21.9337 35.7657 21.9901 35.5963C21.9901 35.5399 21.9901 35.4834 21.9901 35.427C21.9901 35.427 21.9901 35.427 21.9619 35.427L21.2279 35.4834L21.1997 35.4552ZM19.9012 34.1284C19.9012 34.1284 19.9577 34.1284 19.9577 34.1849L19.8447 36.3585C19.8447 36.3585 19.8447 36.415 19.7883 36.415H19.2237C19.2237 36.415 19.1673 36.3585 19.1673 36.3303V36.1327C19.0543 36.302 18.8285 36.415 18.5745 36.3867C18.4333 36.3867 18.2639 36.3303 18.1793 36.2174C18.1793 36.2174 18.1793 36.1891 18.1793 36.1609L18.4615 35.7092C18.4615 35.7092 18.4898 35.7092 18.518 35.7092C18.6309 35.7939 18.7156 35.8222 18.8285 35.8222C19.0826 35.8222 19.1955 35.6528 19.1955 35.3423L19.2519 34.1567C19.2519 34.1567 19.2519 34.1002 19.3084 34.1002H19.873L19.9012 34.1284ZM17.2195 33.8462C17.7276 33.9308 17.897 34.2131 17.7841 34.7212L17.5865 35.7375V35.7657H17.7276C17.7276 35.7657 17.7841 35.8222 17.7558 35.8504L17.6994 36.2456C17.6994 36.2456 17.6994 36.302 17.6429 36.2738H17.5018H17.4735L17.3606 36.8666C17.3606 36.8666 17.3606 36.9231 17.3042 36.8948L16.7678 36.7819C16.7678 36.7819 16.7114 36.7819 16.7396 36.7255L16.8525 36.1327V36.1044L16.5702 36.048C16.5702 36.048 16.5138 36.048 16.542 35.9915L16.5984 35.5963C16.5984 35.5963 16.5984 35.5399 16.6549 35.5681L16.9372 35.6246H16.9654L17.1348 34.6366C17.163 34.4672 17.1348 34.4107 16.9654 34.3825H16.8525C16.8525 34.3825 16.796 34.326 16.8243 34.2978L16.909 33.8462C16.909 33.8462 16.909 33.7897 16.9654 33.8179L17.2195 33.8744V33.8462ZM15.6669 36.2174C15.6669 36.2174 15.6951 36.2456 15.6951 36.2738L15.554 36.7255C15.554 36.7255 15.5258 36.7537 15.4975 36.7537L14.9612 36.5843C14.9612 36.5843 14.933 36.5561 14.933 36.5279L15.0741 36.0762C15.0741 36.0762 15.1023 36.048 15.1306 36.048L15.6669 36.2174ZM16.4008 33.6768C16.4008 33.6768 16.4291 33.705 16.4291 33.7332L15.8363 35.8222C15.8363 35.8222 15.808 35.8504 15.7798 35.8504L15.2435 35.681C15.2435 35.681 15.2152 35.6528 15.2152 35.6246L15.808 33.5356C15.808 33.5356 15.8363 33.5074 15.8645 33.5074L16.4008 33.6768ZM12.7029 35.0882C12.7029 35.0882 12.7311 35.1164 12.7029 35.1447L12.5053 35.5681C12.5053 35.5681 12.4771 35.5963 12.4488 35.5681L11.9407 35.3423C11.9407 35.3423 11.9125 35.314 11.9407 35.2858L12.1383 34.8624C12.1383 34.8624 12.1665 34.8342 12.1948 34.8624L12.7029 35.0882ZM13.7756 32.6888C13.7756 32.6888 13.8038 32.717 13.7756 32.7452L12.8723 34.7212C12.8723 34.7212 12.844 34.7495 12.8158 34.7212L12.3077 34.4954C12.3077 34.4954 12.2795 34.4672 12.3077 34.439L13.211 32.463C13.211 32.463 13.2392 32.4347 13.2675 32.463L13.7756 32.6888ZM15.1588 33.3098C15.1588 33.3098 15.187 33.338 15.1588 33.3663L14.4531 34.9188V34.9471L14.5942 35.0035C14.5942 35.0035 14.6224 35.0318 14.5942 35.06L14.4248 35.427C14.4248 35.427 14.3966 35.4552 14.3684 35.427L14.2272 35.3705H14.199L14.1426 35.4552C13.9167 35.9633 13.578 36.0762 13.0981 35.8504L12.8723 35.7375C12.8723 35.7375 12.844 35.7092 12.8723 35.681L13.0416 35.2858C13.0416 35.2858 13.0699 35.2576 13.0981 35.2858L13.2392 35.3423C13.4368 35.427 13.4933 35.3987 13.578 35.2294L13.6344 35.1164V35.0882L13.2957 34.9471C13.2957 34.9471 13.2675 34.9188 13.2957 34.8906L13.4651 34.5236C13.4651 34.5236 13.4933 34.4954 13.5215 34.5236L13.8603 34.6648H13.8885L14.5942 33.1122C14.5942 33.1122 14.6224 33.084 14.6507 33.1122L15.1588 33.338V33.3098ZM12.4771 32.6605C12.4771 32.6605 12.3642 32.9428 12.223 33.1404C12.0819 33.338 11.9689 33.451 11.856 33.5639C11.5173 33.8462 11.0939 33.8179 10.6704 33.5639C10.3599 33.338 10.1905 33.0275 10.1905 32.717C10.1905 32.717 10.1905 32.6605 10.247 32.6605H10.7269C10.7269 32.6605 10.7833 32.6606 10.7833 32.717C10.7833 32.8864 10.8398 32.9993 10.9809 33.084C11.1221 33.1687 11.2632 33.1969 11.4044 33.084C11.4891 33.0275 11.5455 32.9428 11.6584 32.7735C11.7713 32.6323 11.8278 32.5194 11.856 32.4347C11.9125 32.2654 11.856 32.1242 11.7149 32.0395C11.5737 31.9548 11.4608 31.9548 11.3197 32.0113C11.2915 32.0113 11.2632 32.0113 11.2632 31.9831L11.0656 31.5314C11.0656 31.5314 11.0656 31.4749 11.0939 31.4749C11.3761 31.362 11.7149 31.3903 12.0536 31.6161C12.4488 31.8984 12.6182 32.2654 12.5053 32.6888L12.4771 32.6605ZM10.0212 30.0071V30.0635L9.90826 30.1764C10.1059 30.1764 10.3035 30.2047 10.5293 30.4305C10.8116 30.7128 10.9245 31.108 10.614 31.4467C10.2752 31.8137 9.82357 31.729 9.42837 31.3338L9.14608 31.0515C9.14608 31.0515 9.14608 31.0515 9.11786 31.0515L9.0614 31.108C8.92025 31.2491 8.92025 31.3903 9.17431 31.6443C9.34368 31.8137 9.51306 31.8701 9.6542 31.8984C9.68243 31.8984 9.71066 31.8984 9.68243 31.9548L9.56951 32.3783C9.56951 32.3783 9.54128 32.4347 9.51306 32.4065C9.28723 32.3783 9.00494 32.2371 8.75088 31.9831C8.21454 31.4749 8.18631 31.108 8.58151 30.6845L9.56951 29.6401H9.62597L9.99294 30.0071H10.0212ZM9.54128 30.5999L9.42837 30.7128C9.42837 30.7128 9.42837 30.7128 9.42837 30.741L9.6542 30.9668C9.8518 31.1644 9.99294 31.1927 10.1341 31.0515C10.247 30.9386 10.2188 30.7975 10.0494 30.6563C9.8518 30.4587 9.68243 30.4305 9.51306 30.5999H9.54128ZM8.77911 28.5674C9.11785 28.9908 9.0614 29.2731 8.63797 29.6119L7.84757 30.2611C7.84757 30.2611 7.84757 30.2611 7.84757 30.2893L7.93225 30.4023V30.4587L7.62174 30.7128H7.56528L7.48059 30.5999C7.48059 30.5999 7.48059 30.5999 7.45236 30.5999L6.97248 30.9951H6.91602L6.57728 30.5716V30.5152L7.05716 30.12C7.05716 30.12 7.05716 30.12 7.05716 30.0917L6.88779 29.8659V29.8095L7.19831 29.5554H7.25476L7.42414 29.7812C7.42414 29.7812 7.42414 29.7812 7.45236 29.7812L8.24277 29.1602C8.24277 29.1602 8.38391 28.9626 8.29922 28.8497L8.24277 28.765V28.7085L8.60974 28.4263H8.6662L8.83557 28.6239L8.77911 28.5674ZM6.06916 29.3578V29.4143L5.67396 29.6683H5.6175L5.30699 29.1884V29.132L5.70219 28.8779H5.75865L6.06916 29.3578ZM8.271 27.9181V27.9746L6.43613 29.1602H6.37968L6.06916 28.6803V28.6239L7.90402 27.4383H7.96048L8.271 27.9181ZM7.11362 27.2124C7.11362 27.2124 6.85956 27.41 6.66196 27.5229C6.46436 27.6359 6.29499 27.6641 6.12562 27.6923C5.70219 27.7488 5.33522 27.5229 5.10939 27.0713C4.88356 26.6196 4.94001 26.1962 5.25053 25.9139C5.36344 25.801 5.50459 25.7163 5.70219 25.6034C5.89979 25.5187 6.06916 25.4622 6.23853 25.434C6.66196 25.3776 7.02893 25.6034 7.25476 26.055C7.45236 26.4785 7.42414 26.9301 7.11362 27.2124ZM6.37968 26.0833C6.37968 26.0833 6.18208 26.1397 6.0127 26.2244C5.84333 26.3091 5.75865 26.3656 5.67396 26.422C5.56104 26.5349 5.53282 26.6761 5.6175 26.8454C5.70219 27.0148 5.8151 27.0713 5.98447 27.043C6.09739 27.043 6.18208 26.9866 6.35145 26.9019C6.52082 26.8172 6.6055 26.7608 6.69019 26.7043C6.8031 26.5914 6.83133 26.4502 6.74665 26.2809C6.66196 26.1115 6.54905 26.055 6.37968 26.0833ZM6.2103 23.3733C6.2103 23.3733 6.2103 23.4298 6.18208 23.4298L4.94001 23.7968C4.71418 23.8532 4.57304 24.0226 4.6295 24.2484C4.68596 24.4742 4.88356 24.5589 5.10939 24.4742L6.35145 24.1073C6.35145 24.1073 6.4079 24.1073 6.4079 24.1355L6.54905 24.6718C6.54905 24.6718 6.54905 24.7283 6.52082 24.7283L4.4319 25.3211C4.4319 25.3211 4.37544 25.3211 4.37544 25.2929L4.2343 24.7565C4.2343 24.7565 4.2343 24.7001 4.26253 24.7001L4.40367 24.6436C4.2343 24.5872 4.06493 24.4178 4.00847 24.1355C3.86733 23.6556 4.12138 23.2886 4.60127 23.1757L5.98447 22.7805C5.98447 22.7805 6.04093 22.7805 6.04093 22.8088L6.18208 23.3451L6.2103 23.3733ZM13.0981 23.0064C12.7876 23.0064 12.5618 23.1757 12.4771 23.4298C12.4206 23.5709 12.4206 23.7685 12.4206 24.2484C12.4206 24.7283 12.4206 24.9541 12.4771 25.067C12.5618 25.3211 12.7594 25.4905 13.0981 25.4905C13.1828 25.4905 13.2392 25.4905 13.2957 25.4905L13.0416 25.2364C13.0416 25.2364 13.0416 25.18 13.0416 25.1517L13.4933 24.7283C13.4933 24.7283 13.5498 24.7283 13.578 24.7283L13.7191 24.8694C13.7191 24.8694 13.7191 24.5589 13.7191 24.2484C13.7191 23.7403 13.7191 23.5427 13.6627 23.4298C13.578 23.1757 13.3804 23.0064 13.0416 23.0064H13.0981ZM27.6641 15.2999H26.7608C26.7608 15.2999 26.7043 15.2999 26.7043 15.3564V16.796C26.7043 16.796 26.7043 16.8525 26.7608 16.8525H27.6641C28.2004 16.8525 28.5109 16.542 28.5109 16.0621C28.5109 15.5822 28.2004 15.2999 27.6641 15.2999ZM19.7883 25.0388H19.3931C19.0543 25.0388 18.9132 25.1235 18.9132 25.3493C18.9132 25.5469 19.0543 25.6316 19.3084 25.6316C19.6471 25.6316 19.8165 25.5187 19.8165 25.2646V25.067C19.8165 25.067 19.8165 25.0388 19.7883 25.0388ZM20.0706 6.74665C12.8158 6.74665 6.91602 12.6182 6.91602 19.9012C6.91602 27.1842 12.7876 33.0558 20.0706 33.0558C27.3536 33.0558 33.2251 27.1842 33.2251 19.9012C33.2251 12.6182 27.2689 6.85956 20.0141 6.85956L20.0706 6.74665ZM10.0212 19.1673C9.8518 18.6591 9.82357 18.2357 9.82357 17.3042C9.82357 16.3726 9.8518 15.9774 10.0212 15.4411C10.3881 14.3402 11.3761 13.7756 12.59 13.7756C13.8038 13.7756 14.6789 14.3684 15.0459 15.2152C15.0741 15.2717 15.0459 15.3564 14.9894 15.3846L13.6909 15.921C13.6909 15.921 13.578 15.921 13.5498 15.8927C13.3239 15.5258 13.0416 15.3564 12.59 15.3564C12.1383 15.3564 11.8278 15.5822 11.7149 15.9492C11.6302 16.175 11.602 16.4855 11.602 17.3042C11.602 18.1228 11.6302 18.4333 11.7149 18.6591C11.856 19.0261 12.1665 19.2519 12.6464 19.2519C13.0981 19.2519 13.4368 19.0543 13.5498 18.7156C13.578 18.6027 13.6062 18.4615 13.6062 18.2639C13.6062 18.2357 13.6062 18.2075 13.5498 18.2075H12.8158C12.8158 18.2075 12.7029 18.1793 12.7029 18.0946V16.9654C12.7029 16.9654 12.7311 16.8525 12.8158 16.8525H15.2435C15.2435 16.8525 15.3564 16.8807 15.3564 16.9654V17.4735C15.3564 18.1228 15.3282 18.6309 15.187 19.0543C14.82 20.1835 13.8603 20.8045 12.6182 20.8045C11.3761 20.8045 10.4164 20.2399 10.0494 19.139L10.0212 19.1673ZM14.7071 26.1115L14.2555 26.5632C14.2555 26.5632 14.199 26.5632 14.1708 26.5632L13.7756 26.168C13.5498 26.2809 13.2957 26.3373 12.9852 26.3373C12.3077 26.3373 11.7996 26.0268 11.602 25.4058C11.5173 25.1517 11.4891 24.9259 11.4891 24.3613C11.4891 23.7968 11.4891 23.5709 11.602 23.3169C11.7996 22.6958 12.3359 22.3853 12.9852 22.3853C13.6344 22.3853 14.1708 22.6958 14.3684 23.3169C14.4531 23.5709 14.4813 23.7968 14.4813 24.3613C14.4813 24.9259 14.4813 25.1517 14.3684 25.4058C14.3684 25.4905 14.3119 25.5752 14.2837 25.6316L14.6789 26.0268C14.6789 26.0268 14.6789 26.0833 14.6789 26.1115H14.7071ZM17.5018 26.2244C17.5018 26.2244 17.5018 26.2809 17.4453 26.2809H16.7678C16.7678 26.2809 16.7114 26.2809 16.7114 26.2244V26.0268C16.5702 26.2244 16.3444 26.3373 16.0056 26.3373C15.4128 26.3373 15.1023 25.9139 15.1023 25.3211V23.5992C15.1023 23.5992 15.1023 23.5427 15.1588 23.5427H15.8363C15.8363 23.5427 15.8927 23.5427 15.8927 23.5992V25.1517C15.8927 25.434 16.0339 25.6598 16.3162 25.6598C16.5984 25.6598 16.7396 25.4622 16.7396 25.1517V23.5992C16.7396 23.5992 16.7396 23.5427 16.796 23.5427H17.4735C17.4735 23.5427 17.53 23.5427 17.53 23.5992V26.1962L17.5018 26.2244ZM20.494 26.2244C20.494 26.2244 20.494 26.2809 20.4375 26.2809H19.8165C19.8165 26.2809 19.7601 26.2809 19.7601 26.2244V26.055C19.6189 26.2244 19.3931 26.3656 18.9979 26.3656C18.518 26.3656 18.0946 26.1115 18.0946 25.5469C18.0946 24.9824 18.5462 24.6718 19.2237 24.6718H19.7036C19.7036 24.6718 19.7318 24.6718 19.7318 24.6436V24.5307C19.7318 24.2766 19.6189 24.1637 19.1673 24.1637C18.885 24.1637 18.6874 24.2484 18.5462 24.3331C18.5462 24.3331 18.4898 24.3331 18.4615 24.3331L18.2075 23.8814C18.2075 23.8814 18.2075 23.825 18.2075 23.7968C18.4333 23.6274 18.7721 23.5145 19.2237 23.5145C20.0988 23.5145 20.4375 23.825 20.4375 24.5025V26.2526L20.494 26.2244ZM20.4093 19.7883H19.6189C19.6189 19.7883 19.4778 19.7601 19.4213 19.6471L18.3204 17.1066H18.2639V20.6069C18.2639 20.6069 18.2357 20.7198 18.151 20.7198H16.7678C16.7678 20.7198 16.6549 20.6916 16.6549 20.6069V14.0014C16.6549 14.0014 16.6831 13.8885 16.7678 13.8885H18.2357C18.2357 13.8885 18.3769 13.8885 18.4051 14.0014L19.9859 17.5582H20.0141L21.5385 14.0014C21.5385 14.0014 21.6514 13.8885 21.7078 13.8885H23.1757C23.1757 13.8885 23.2886 13.9167 23.2886 14.0014V20.6069C23.2886 20.6069 23.2604 20.7198 23.1757 20.7198H21.7925C21.7925 20.7198 21.6796 20.6916 21.6796 20.6069V17.1066H21.6231L20.5222 19.6471C20.5222 19.6471 20.3811 19.7883 20.3246 19.7883H20.4093ZM22.3853 26.2526C22.3853 26.2526 22.3853 26.3091 22.3289 26.3091H22.0183C21.4255 26.3091 21.1715 26.055 21.1715 25.434V22.4982C21.1715 22.4982 21.1715 22.4418 21.2279 22.4418H21.9054C21.9054 22.4418 21.9619 22.4418 21.9619 22.4982V25.3776C21.9619 25.5752 22.0466 25.6316 22.1877 25.6316H22.3006C22.3006 25.6316 22.3571 25.6316 22.3571 25.6881V26.2526H22.3853ZM23.6838 26.2244C23.6838 26.2244 23.6838 26.2809 23.6274 26.2809H22.9499C22.9499 26.2809 22.8934 26.2809 22.8934 26.2244V23.6274C22.8934 23.6274 22.8934 23.5709 22.9499 23.5709H23.6274C23.6274 23.5709 23.6838 23.5709 23.6838 23.6274V26.2244ZM23.6838 23.0628C23.6838 23.0628 23.6838 23.1193 23.6274 23.1193H22.9499C22.9499 23.1193 22.8934 23.1193 22.8934 23.0628V22.4982C22.8934 22.4982 22.8934 22.4418 22.9499 22.4418H23.6274C23.6274 22.4418 23.6838 22.4418 23.6838 22.4982V23.0628ZM25.6598 24.079C25.6598 24.079 25.6598 24.1355 25.6034 24.1355H25.2646C25.2646 24.1355 25.2364 24.1355 25.2364 24.1637V25.3776C25.2364 25.5752 25.2929 25.6598 25.4905 25.6598H25.6316C25.6316 25.6598 25.6881 25.6598 25.6881 25.7163V26.2809C25.6881 26.2809 25.6881 26.3373 25.6316 26.3373H25.3211C24.7001 26.3373 24.446 26.055 24.446 25.434V24.192C24.446 24.192 24.446 24.1637 24.4178 24.1637H24.2484C24.2484 24.1637 24.192 24.1637 24.192 24.1073V23.6274C24.192 23.6274 24.192 23.5709 24.2484 23.5709H24.4178C24.4178 23.5709 24.446 23.5709 24.446 23.5427V22.8088C24.446 22.8088 24.446 22.7523 24.5025 22.7523H25.18C25.18 22.7523 25.2364 22.7523 25.2364 22.8088V23.5427C25.2364 23.5427 25.2364 23.5709 25.2646 23.5709H25.6034C25.6034 23.5709 25.6598 23.5709 25.6598 23.6274V24.1073V24.079ZM28.6803 23.5992L27.5794 26.5067C27.3536 27.0995 27.0995 27.2971 26.6196 27.2971H26.422C26.422 27.2971 26.3656 27.2971 26.3656 27.2406V26.6761C26.3656 26.6761 26.3656 26.6196 26.422 26.6196H26.5349C26.7325 26.6196 26.8454 26.5349 26.9019 26.3373L26.9866 26.1397L25.9704 23.5992C25.9704 23.5992 25.9704 23.5427 26.0268 23.5427H26.7608C26.7608 23.5427 26.8172 23.5427 26.8172 23.5992L27.3536 25.18L27.8617 23.5992C27.8617 23.5992 27.8899 23.5427 27.9181 23.5427H28.6239C28.6239 23.5427 28.6803 23.5427 28.6803 23.5992ZM27.6923 18.4333H26.7043C26.7043 18.4333 26.6478 18.4333 26.6478 18.4898V20.6069C26.6478 20.6069 26.6196 20.7198 26.5349 20.7198H24.9824C24.9824 20.7198 24.8694 20.6916 24.8694 20.6069V14.0014C24.8694 14.0014 24.8977 13.8885 24.9824 13.8885H27.6923C29.3578 13.8885 30.2047 14.82 30.2047 16.1468C30.2047 17.4735 29.3296 18.4051 27.6923 18.4051V18.4333ZM4.12138 19.5625H3.13338L3.92378 20.1553L3.61327 21.0868L4.40367 20.494L5.19407 21.0868L4.88356 20.1553L5.67396 19.5625H4.68596L4.37544 18.6309L4.06493 19.5625H4.12138Z" fill="white"/>
</svg>
