<svg width="32" height="32" viewBox="0 0 32 32" fill="none" xmlns="http://www.w3.org/2000/svg">
<g clipPath="url(#clip0_1156_10779)">
<path d="M15.8933 31.2942C14.7785 31.2942 13.6644 31.0695 12.6326 30.6207L7.69898 28.476C5.9141 27.6996 4.02688 27.2079 2.08982 27.0143L0.469643 26.8522C0.202895 26.8257 0 26.6013 0 26.3334V21.2511C0 21.1383 0.0367002 21.0285 0.104431 20.9384C0.225572 20.7764 3.12936 16.9829 7.56501 17.9699C10.0597 18.5243 12.0684 19.5617 13.3141 20.3345C14.2185 20.8955 15.2786 21.1918 16.3799 21.1918H21.3136C22.1639 21.1918 22.9114 21.6417 23.3294 22.3166L27.5786 17.4212C28.4024 16.3211 29.7501 15.6473 31.1611 15.6473H31.4786C31.655 15.6473 31.8191 15.7363 31.9151 15.8837C32.0115 16.031 32.0267 16.2175 31.956 16.3787L28.1129 25.1127C27.2727 27.0229 25.5618 28.4659 23.5368 28.9722L22.8606 29.1411L18.9275 30.7144C17.9595 31.1014 16.9262 31.2942 15.8933 31.2942V31.2942ZM1.04312 25.8613L2.19366 25.9765C4.23842 26.1809 6.23068 26.7004 8.11522 27.5197L13.0486 29.6644C14.7833 30.4187 16.7839 30.4483 18.5405 29.7456L22.5059 28.1594C22.5279 28.1508 22.5503 28.1436 22.5733 28.1379L23.2837 27.9601C24.9985 27.5313 26.4471 26.3098 27.1581 24.6926L30.6635 16.7263C29.7659 16.8584 28.94 17.3421 28.3898 18.0755L23.6827 23.5006C23.6833 23.5209 23.6836 23.5409 23.6836 23.5615C23.6836 24.868 22.6204 25.9312 21.3139 25.9312H14.4303C13.5355 25.9312 12.6511 26.0747 11.8022 26.3575L11.6107 25.8712L11.4487 25.3756L11.4752 25.3669C12.4279 25.0495 13.423 24.888 14.4303 24.888H21.3139C22.0452 24.888 22.6407 24.2928 22.6407 23.5612C22.6407 22.8295 22.0455 22.2343 21.3139 22.2343H16.3802C15.0844 22.2343 13.8342 21.8837 12.7648 21.2204C11.588 20.4903 9.69094 19.5107 7.33944 18.9877C3.98033 18.2426 1.56319 20.8206 1.04342 21.4355V25.8613H1.04312Z" fill="#5A5A5A"/>
<path d="M20.5372 15.5295C19.7351 15.5295 18.8358 15.2818 17.8458 14.7868C17.7259 14.7265 17.6334 14.6221 17.588 14.4959C17.5477 14.3828 16.6159 11.7025 18.0967 9.7204C19.173 8.27955 21.1966 7.63058 24.1147 7.79319C24.3808 7.80782 24.593 8.02115 24.6061 8.2879C24.6165 8.49497 24.8317 13.3827 22.3393 15.01C21.8094 15.3564 21.2073 15.5295 20.5372 15.5295V15.5295ZM18.5109 13.9499C19.8807 14.5923 20.9758 14.6552 21.7694 14.137C23.2473 13.1717 23.5669 10.3064 23.5746 8.81513C21.2882 8.75933 19.7315 9.27463 18.9322 10.3443C17.981 11.6181 18.3507 13.3701 18.5109 13.9499Z" fill="#5A5A5A"/>
<path d="M12.5622 8.69698C11.6375 8.69698 10.5709 8.49886 9.63992 7.81707C8.06092 6.65997 7.33527 4.45706 7.48267 1.26982C7.4952 1.00337 7.70645 0.789133 7.9729 0.773319C8.19847 0.760489 13.5376 0.47554 15.3341 3.17226C16.1708 4.42752 16.1021 6.07157 15.1309 8.05965C15.0718 8.18049 14.9686 8.27388 14.8424 8.32013C14.7723 8.34609 13.7933 8.69698 12.5622 8.69698ZM14.6625 7.8308H14.6675H14.6625ZM8.50908 1.79943C8.46402 4.35233 9.05093 6.09246 10.2561 6.97565C11.699 8.0328 13.6692 7.58344 14.2886 7.40293C14.9973 5.8651 15.0572 4.63728 14.4664 3.75051C13.3684 2.10228 10.1484 1.78004 8.50908 1.79943V1.79943Z" fill="#5A5A5A"/>
<path d="M16.6347 22.0511C16.6183 22.0511 16.6019 22.0502 16.5852 22.0487C16.3074 22.0224 16.0994 21.7822 16.1135 21.5033C16.1442 20.8898 16.1967 20.308 16.268 19.7566C16.4849 16.0663 16.373 7.47246 10.9396 5.095C10.6759 4.97953 10.5553 4.6722 10.6708 4.40814C10.786 4.14467 11.0942 4.02443 11.3577 4.1396C14.5595 5.54048 16.5739 9.02819 17.1816 14.2256C17.2362 14.6914 17.2771 15.1506 17.3076 15.5978C18.7386 11.9818 20.9277 10.7042 21.0581 10.6311C21.3088 10.4893 21.6268 10.5794 21.7683 10.8298C21.9088 11.0804 21.8205 11.3976 21.5707 11.539C21.5155 11.5712 18.1585 13.5859 17.3159 19.7986C17.2518 20.8615 17.1593 21.5391 17.1506 21.6011C17.1145 21.8613 16.8922 22.0511 16.6347 22.0511Z" fill="#5A5A5A"/>
</g>
<defs>
<clipPath id="clip0_1156_10779">
<rect width="32" height="32" fill="#5A5A5A"/>
</clipPath>
</defs>
</svg>
