<svg width="40" height="40" viewBox="0 0 40 40" fill="none" xmlns="http://www.w3.org/2000/svg">
<path d="M20.0141 0C8.94848 0 0 8.94848 0 20.0141C0 31.0797 8.94848 40.0282 20.0141 40.0282C31.0797 40.0282 40.0282 31.0797 40.0282 20.0141C40.0282 8.94848 31.0515 0 20.0141 0ZM1.24206 20.0141C1.24206 17.4735 1.75018 15.0176 2.70995 12.7029C3.6415 10.4728 4.99647 8.4686 6.71842 6.74665C8.44037 5.0247 10.4446 3.66972 12.6747 2.73818C14.9894 1.75018 17.4453 1.27029 19.9859 1.27029C22.5265 1.27029 24.9824 1.77841 27.2971 2.73818C29.2731 3.58504 31.0797 4.74241 32.6605 6.18208L26.168 12.6747C26.168 12.6747 25.9421 12.59 25.801 12.59H24.3049C23.825 12.59 23.3733 12.6464 22.9499 12.7594C23.5145 10.8963 23.0346 8.77911 21.5667 7.31122L20.4375 6.18208C20.127 5.87156 19.6471 5.87156 19.3366 6.18208L18.2075 7.31122C16.7396 8.77911 16.2879 10.8963 16.8243 12.7594C16.3726 12.6464 15.921 12.5617 15.4128 12.5617H14.0861C13.5498 12.5617 13.1263 12.9852 13.1263 13.5215V14.8765C13.1263 16.0903 13.5498 17.2195 14.2555 18.1228H14.0861C13.5498 18.1228 13.1263 18.5462 13.1263 19.0826V20.4375C13.1263 21.6514 13.5498 22.7805 14.2555 23.6838H14.0861C13.5498 23.6838 13.1263 24.1073 13.1263 24.6436V25.7163L6.15385 32.6888C4.68596 31.108 3.52858 29.3013 2.70995 27.3253C1.72195 25.0106 1.24206 22.5547 1.24206 20.0141ZM19.0826 28.9061V29.6119H18.4051C16.4008 29.6119 14.7636 27.9746 14.7636 25.9704V25.2646H15.4693C17.3888 25.2646 18.9414 26.7325 19.1108 28.5956C19.1108 28.7085 19.1108 28.7932 19.1108 28.9061H19.0826ZM14.7354 19.7036H15.4411C17.3606 19.7036 18.9132 21.1715 19.0826 23.0346C19.0826 23.1475 19.0826 23.2322 19.0826 23.3451V24.0508H18.4051C16.4008 24.0508 14.7636 22.4135 14.7636 20.4093V19.7036H14.7354ZM21.3691 24.0508H20.6916V22.837C20.9457 21.0586 22.47 19.7036 24.3049 19.7036H25.0106V20.4093C25.0106 22.4135 23.3733 24.0508 21.3691 24.0508ZM20.4375 13.9167L19.873 14.4813L19.3084 13.9167C17.7841 12.3924 17.7841 9.93649 19.3084 8.41214L19.873 7.84757L20.4375 8.41214C21.9619 9.93649 21.9619 12.3924 20.4375 13.9167ZM19.0826 17.4735C19.0826 17.4735 19.0826 17.6711 19.0826 17.7841V18.4898H18.4051C16.4008 18.4898 14.7636 16.8525 14.7636 14.8483V14.1426H15.4693C17.3888 14.1426 18.9414 15.6104 19.1108 17.4735H19.0826ZM20.6916 28.3698C20.9457 26.5914 22.47 25.2364 24.3049 25.2364H25.0106V25.9421C25.0106 27.9464 23.3733 29.5836 21.3691 29.5836H20.6916V28.3698ZM25.0106 14.8483C25.0106 16.8525 23.3733 18.4898 21.3691 18.4898H20.6916V17.2759C20.9457 15.4975 22.47 14.1426 24.3049 14.1426H25.0106V14.8483ZM33.2251 33.2251C31.5032 34.9471 29.4989 36.302 27.2689 37.2336C24.9541 38.2216 22.4982 38.7015 19.9577 38.7015C17.4171 38.7015 14.9612 38.1934 12.6464 37.2336C10.6704 36.3867 8.8638 35.2294 7.28299 33.7897L13.4086 27.6641C14.1426 29.6965 16.0621 31.1644 18.3486 31.1644H19.0826V33.705C19.0826 34.1567 19.4495 34.4954 19.873 34.4954C20.3246 34.4954 20.6634 34.1284 20.6634 33.705V31.1644H21.3409C24.2202 31.1644 26.5632 28.8215 26.5632 25.9139V24.5589C26.5632 24.0226 26.1397 23.5992 25.6034 23.5992H25.434C26.1397 22.6958 26.5632 21.5949 26.5632 20.3529V18.9979C26.5632 18.4615 26.1397 18.0381 25.6034 18.0381H25.4058C26.1115 17.1348 26.5349 16.0339 26.5349 14.7918V14.4813L33.7615 7.25476C35.2294 8.83557 36.3867 10.6422 37.2054 12.6182C38.1934 14.933 38.6733 17.3888 38.6733 19.9294C38.6733 22.47 38.1651 24.9259 37.2054 27.2406C36.2738 29.4707 34.9188 31.4749 33.1969 33.1969L33.2251 33.2251Z" fill="white"/>
</svg>
