<svg width="24" height="28" viewBox="0 0 24 28" fill="black" xmlns="http://www.w3.org/2000/svg">
<path d="M3 0.242188C1.35959 0.242188 0 1.59285 0 3.24219V22.75V23V27C2.65169e-05 27.2652 0.105392 27.5195 0.292922 27.7071C0.480453 27.8946 0.734792 28 1 28H15C15.2652 28 15.5195 27.8946 15.7071 27.7071C15.8946 27.5195 16 27.2652 16 27V23.7266L22.0547 20.293C22.0719 20.2831 22.0889 20.2726 22.1055 20.2617C23.1903 19.5595 24 18.516 24 17.2578C24 16.9847 23.965 16.701 23.8828 16.418C23.8828 16.4167 23.8828 16.4154 23.8828 16.4141C23.4188 14.8347 21.7391 13.9241 20.1641 14.375C20.1483 14.3798 20.1327 14.385 20.1172 14.3906L18 15.1133V9C18 7.35066 16.6404 6 15 6C14.2323 6 13.5341 6.30526 13 6.78906C12.4666 6.30562 11.7692 6 11 6C10.0455 6 9.29332 6.51848 8.74219 7.22266C8.24461 6.84192 7.6948 6.5 7.02344 6.5C6.66451 6.5 6.32197 6.57443 6 6.69141V3.24219C6 1.59285 4.64041 0.242187 3 0.242188ZM3 2.24219C3.56358 2.24219 4 2.67153 4 3.24219V9.5V12V13C4 14.6493 5.35959 16 7 16C7.76769 16 8.46588 15.6947 9 15.2109C9.53345 15.6944 10.2309 16 11 16C11.7767 16 12.4647 15.66 13 15.168C13.5353 15.66 14.2233 16 15 16C15.3513 16 15.6855 15.9257 16 15.8125V16.5078C16.0001 16.6669 16.0382 16.8237 16.1111 16.9651C16.184 17.1065 16.2895 17.2285 16.419 17.321C16.5485 17.4134 16.6982 17.4736 16.8556 17.4966C17.0131 17.5196 17.1737 17.5047 17.3242 17.4531L20.7148 16.2969C21.2638 16.1397 21.8009 16.4319 21.9609 16.9766C21.9868 17.0655 22 17.1549 22 17.2578C22 17.7341 21.7923 18.0791 21.0234 18.5781L21.0195 18.582L14.9844 22H2V3.24219C2 2.67153 2.43642 2.24219 3 2.24219ZM11 8C11.5587 8 12 8.44125 12 9V10.375V10.5V12V13C12 13.5629 11.5629 14 11 14C10.4371 14 10 13.5629 10 13V12V10.375V9.5V9C10 8.44125 10.4413 8 11 8ZM15 8C15.5636 8 16 8.42934 16 9V13C16 13.5629 15.5629 14 15 14C14.4371 14 14 13.5629 14 13V12V10.5V9C14 8.42934 14.4364 8 15 8ZM7.02344 8.5C7.58218 8.5 8 8.92674 8 9.5V10.375V12V13C8 13.5707 7.56358 14 7 14C6.43642 14 6 13.5707 6 13V12V9.5C6 8.95577 6.46469 8.5 7.02344 8.5ZM2 24H14V26H2V24Z"  />
</svg>
