<svg width="32" height="32" viewBox="0 0 32 32" fill="none" xmlns="http://www.w3.org/2000/svg">
<path d="M3.45313 2.04688L2.04688 3.45312L6.64844 8.0625C2.19531 10.5234 0.4375 14.3672 0.335938 14.6016L0.164062 15L0.335938 15.3984C0.484376 15.75 4.20313 24 15 24C15.3672 24 15.6953 23.9531 16.0469 23.9375C16.0547 23.9375 16.0625 23.9375 16.0625 23.9375C18.1172 23.8203 19.9062 23.4375 21.4297 22.8438L26.5391 27.9609L27.9609 26.5391L23.3672 21.9531L22 20.5859L21.875 20.4688L17.7031 16.2812L13.7188 12.2969L10.8281 9.41406L10.1406 8.72656L8.5625 7.15625L3.45313 2.04688ZM15 6C13.8906 6 12.8828 6.10938 11.9219 6.26562L13.7812 8.125C14.1797 8.05469 14.5781 8 15 8C18.8594 8 22 11.1406 22 15C22 15.4219 21.9453 15.8203 21.875 16.2187L23.5 17.8437C23.7969 16.9453 24 16 24 15C24 13.0312 23.3438 11.2187 22.2656 9.73438C25.4844 11.4687 27.1016 14.0156 27.6328 15C27.2422 15.7266 26.2422 17.3203 24.4531 18.7969L25.875 20.2188C28.4844 17.9922 29.5859 15.5859 29.6641 15.3984L29.8438 15L29.6641 14.6016C29.5156 14.25 25.7969 6 15 6ZM7.73438 9.76562C6.65625 11.2422 6 13.0391 6 15C6 16.9687 6.65625 18.7813 7.73438 20.2578C4.51563 18.5313 2.89844 15.9844 2.36719 15C2.89844 14.0156 4.53125 11.5 7.73438 9.76562ZM9.4375 10.8437L12.3125 13.7344C12.1328 14.1172 12 14.5391 12 15C12 16.6562 13.3438 18 15 18C15.4609 18 15.8828 17.8672 16.2656 17.6875L19.1562 20.5625C17.9922 21.4453 16.5703 22 15 22C11.1406 22 8 18.8594 8 15C8 13.4297 8.55469 12.0078 9.4375 10.8437Z" fill="white"/>
</svg>
