<svg width="40" height="40" viewBox="0 0 40 40" fill="none" xmlns="http://www.w3.org/2000/svg">
<path d="M20.0141 0C8.94848 0 0 8.94848 0 20.0141C0 31.0797 8.94848 40.0282 20.0141 40.0282C31.0797 40.0282 40.0282 31.0797 40.0282 20.0141C40.0282 8.94848 31.0515 0 20.0141 0ZM1.24206 20.0141C1.24206 17.4735 1.75018 15.0176 2.70995 12.7029C3.6415 10.4728 4.99647 8.4686 6.71842 6.74665C8.44037 5.0247 10.4446 3.66972 12.6747 2.73818C14.9894 1.75018 17.4453 1.27029 19.9859 1.27029C22.5265 1.27029 24.9824 1.77841 27.2971 2.73818C29.2731 3.58504 31.0797 4.74241 32.6605 6.18208L23.6274 15.2152L22.8652 15.3846L22.1595 11.602C22.0466 10.9245 21.5102 10.4164 20.861 10.3035L14.3966 9.11786C14.3966 9.11786 14.199 9.08963 14.0861 9.11786C13.7756 9.11786 13.4933 9.20254 13.2392 9.37191L7.64996 12.7876C7.08539 13.1546 6.77488 13.8038 6.88779 14.4813L8.41214 22.6394C8.52505 23.3169 9.0614 23.825 9.71066 23.9661L14.1426 24.7848L6.18208 32.7452C4.71419 31.1644 3.55681 29.3578 2.70995 27.3818C1.72195 25.067 1.24206 22.6112 1.24206 20.0706V20.0141ZM19.0261 16.2597C18.3769 16.4008 17.8687 16.9654 17.7558 17.6147L16.9654 22.9217L15.6387 15.7798L20.5505 12.7876C20.5505 12.7876 20.6069 12.7594 20.6351 12.7311H20.6916L21.2562 15.7516L19.0261 16.2597ZM14.7918 14.7636L9.14608 13.7191L14.0861 10.6987L19.7318 11.7431L14.7918 14.7636ZM8.69442 14.9612L14.3402 16.0056L15.6951 23.2886V23.3451L9.99294 22.3006L8.63797 14.933H8.69442V14.9612ZM18.4333 24.192L18.7438 22.103L19.2237 18.8285H19.2519L24.3331 21.7078L23.2604 28.9626L18.151 26.0833L18.4333 24.192ZM25.6598 21.8772L31.362 20.6069L30.2893 27.8617L24.6154 29.132L25.6881 21.8772H25.6598ZM25.18 20.6069L19.9859 17.6711L21.5667 17.3324L23.1475 16.9936L25.801 16.4008L30.9951 19.3366L25.2082 20.6351L25.18 20.6069ZM33.2534 33.2534C31.5314 34.9753 29.5272 36.3303 27.2971 37.2618C24.9824 38.2498 22.5265 38.7297 19.9859 38.7297C17.4453 38.7297 14.9894 38.2216 12.6747 37.2618C10.6987 36.415 8.89202 35.2576 7.31122 33.8179L16.0339 25.067H16.1186C16.1186 25.067 16.3162 25.0953 16.4291 25.1235C16.4855 25.1235 16.5702 25.1235 16.6267 25.1235L16.5138 25.8574C16.4008 26.5349 16.7396 27.1842 17.3324 27.5229L23.0628 30.741C23.3169 30.8821 23.5709 30.9386 23.8532 30.9386C23.9661 30.9386 24.1073 30.9386 24.2202 30.9104L30.6281 29.4707C31.2773 29.3296 31.7855 28.7932 31.8984 28.1157L33.1122 19.9012C33.1969 19.2237 32.8864 18.5745 32.2936 18.2357L26.5632 15.0176C26.5632 15.0176 26.3656 14.933 26.2809 14.8765L33.8179 7.33945C35.2858 8.92025 36.4432 10.7269 37.2618 12.7029C38.2498 15.0176 38.7297 17.4735 38.7297 20.0141C38.7297 22.5547 38.2216 25.0106 37.2618 27.3253C36.3303 29.5554 34.9753 31.5596 33.2534 33.2816V33.2534Z" fill="white"/>
</svg>
