<svg width="32" height="32" viewBox="0 0 32 32" fill="none" xmlns="http://www.w3.org/2000/svg">
<path d="M21.9453 2.02344C21.1641 2.02344 20.3828 2.32031 19.7891 2.91406L2.92188 19.7812C1.73438 20.9688 1.73438 22.9141 2.92188 24.1016L7.9375 29.125C9.125 30.3125 11.0703 30.3125 12.2578 29.125L29.125 12.25C30.3125 11.0703 30.3125 9.11719 29.125 7.9375L24.1016 2.91406C23.5156 2.32031 22.7344 2.02344 21.9453 2.02344ZM21.9453 4.01563C22.2188 4.01563 22.4844 4.11719 22.6875 4.32813L27.7188 9.34375C28.1328 9.76563 28.1328 10.4219 27.7188 10.8438L10.8437 27.7109C10.4219 28.1328 9.77344 28.1328 9.35156 27.7109L4.32812 22.6875C3.91406 22.2656 3.91406 21.6172 4.32812 21.1953L6.0625 19.4688L8.54688 21.9609L9.95312 20.5391L7.46875 18.0625L9.0625 16.4688L12.5469 19.9531L13.9531 18.5469L10.4687 15.0625L12.0625 13.4688L14.5469 15.9531L15.9531 14.5469L13.4687 12.0625L15.0625 10.4688L18.5469 13.9531L19.9531 12.5469L16.4687 9.0625L18.0625 7.46875L20.5391 9.95313L21.9609 8.54688L19.4688 6.0625L21.2031 4.32813C21.4141 4.11719 21.6797 4.01563 21.9453 4.01563Z" fill="white"/>
</svg>
