<svg width="32" height="32" viewBox="0 0 32 32" fill="none" xmlns="http://www.w3.org/2000/svg">
<path d="M31.9604 5.67558C31.9482 5.64276 31.9323 5.61125 31.9135 5.58183C31.9049 5.56829 31.8966 5.555 31.887 5.54224C31.863 5.51152 31.8357 5.48339 31.8052 5.45865C31.7974 5.45162 31.7904 5.44355 31.7818 5.4373L31.7766 5.43235C31.7372 5.405 31.6945 5.38287 31.6495 5.36672L31.6406 5.36256L16.174 0.0292236C16.0612 -0.00957845 15.9388 -0.00957845 15.826 0.0292236L0.359375 5.36256L0.350521 5.36724C0.305208 5.38313 0.2625 5.405 0.223437 5.43235L0.218229 5.4373C0.209635 5.44355 0.202604 5.45162 0.194792 5.45865C0.164323 5.48339 0.136979 5.51152 0.113021 5.54224C0.103385 5.555 0.0950521 5.56829 0.0864583 5.58183C0.0677083 5.61125 0.0518229 5.64276 0.0395833 5.67558C0.0333333 5.68938 0.028125 5.7037 0.0234375 5.71829C0.00859373 5.7662 0.000781253 5.8162 0 5.86646V26.1331C0 26.3607 0.144531 26.5631 0.359375 26.6373L15.826 31.9706H15.8326C15.9409 32.0081 16.0591 32.0081 16.1674 31.9706H16.174L31.6406 26.6373C31.8555 26.5631 32 26.3607 32 26.1331V5.86646C31.9992 5.8162 31.9914 5.7662 31.9766 5.71829C31.9719 5.7037 31.9667 5.68938 31.9604 5.67558V5.67558ZM16 10.6355L2.16953 5.86646L8.26667 3.76412L22.0971 8.53313L16 10.6355ZM16 1.09745L29.8305 5.86646L23.7333 7.96881L9.90234 3.1998L16 1.09745ZM1.06667 6.61308L15.4667 11.5784V30.7198L1.06667 25.7529V6.61308ZM24.2667 28.0532V23.6446L25.9776 23.0547C28.3042 22.2514 29.8656 20.0613 29.8667 17.5998C29.8667 17.4274 29.7833 17.2657 29.643 17.1657C29.5026 17.0657 29.3224 17.0396 29.1594 17.0959L27.0891 17.81C25.4549 18.3745 24.1604 19.6428 23.5622 21.2649C23.3784 21.0363 23.1646 20.8339 22.9263 20.6628C22.0878 20.0573 21.0057 19.9008 20.0299 20.2435L17.9594 20.96C17.7445 21.0339 17.6 21.2365 17.6 21.4639C17.6018 23.2245 19.024 24.6537 20.7846 24.6639C21.1427 24.6633 21.4982 24.6029 21.8362 24.4852L23.2 24.0154V28.4227L16.5333 30.7198V11.58L30.9333 6.61308V25.7529L24.2667 28.0532ZM24.3302 22.4959C24.613 20.7933 25.8055 19.3823 27.4367 18.8191L28.7365 18.3706C28.4534 20.073 27.2612 21.4839 25.6299 22.0475L24.3302 22.4959ZM23.1685 22.8959L21.4891 23.4751C20.9 23.6779 20.2518 23.6128 19.7151 23.2969C19.1781 22.981 18.8065 22.4459 18.6982 21.8323L20.3776 21.2532C20.9667 21.0503 21.6148 21.1154 22.1516 21.4313C22.6885 21.7472 23.0602 22.2823 23.1685 22.8959Z" fill="#5A5A5A"/>
<path d="M10.1609 11.05L7.37759 10.0898C6.57421 9.81823 5.70233 10.2461 5.42577 11.0479C5.14947 11.8495 5.57213 12.724 6.37239 13.0052L9.15572 13.9651C9.95911 14.237 10.831 13.8089 11.1075 13.0073C11.3838 12.2055 10.9612 11.331 10.1609 11.05ZM9.93384 12.8943C9.80937 12.9846 9.64843 13.0081 9.50338 12.9565L6.72056 11.9966C6.52916 11.9305 6.40051 11.7503 6.40051 11.5477C6.39973 11.3937 6.47369 11.249 6.59895 11.1596C6.72421 11.0703 6.88515 11.0474 7.03046 11.0984L9.81379 12.0586C10.0055 12.1247 10.1338 12.3049 10.1338 12.5076C10.1346 12.6615 10.0599 12.8057 9.93384 12.8943Z" fill="#5A5A5A"/>
</svg>
