<svg width="32" height="32" viewBox="0 0 32 32" fill="none" xmlns="http://www.w3.org/2000/svg">
<path d="M15 2C7.82031 2 2 7.82031 2 15C2 20.5078 5.42969 25.2109 10.2656 27.1094C10.1484 26.0781 10.0469 24.5 10.3047 23.375C10.5469 22.3672 11.8281 16.9141 11.8281 16.9141C11.8281 16.9141 11.4453 16.1328 11.4453 14.9844C11.4453 13.1797 12.4922 11.8281 13.7969 11.8281C14.9062 11.8281 15.4375 12.6641 15.4375 13.6562C15.4375 14.7734 14.7266 16.4453 14.3672 17.9844C14.0547 19.2813 15.0156 20.3359 16.2891 20.3359C18.6016 20.3359 20.375 17.8984 20.375 14.3828C20.375 11.2734 18.1406 9.09375 14.9453 9.09375C11.25 9.09375 9.07813 11.8672 9.07813 14.7344C9.07813 15.8516 9.50781 17.0547 10.0469 17.7031C10.1484 17.8359 10.1641 17.9453 10.1328 18.0781C10.0391 18.4844 9.8125 19.375 9.77344 19.5547C9.71875 19.7891 9.58594 19.8438 9.33594 19.7266C7.71094 18.9688 6.69531 16.5938 6.69531 14.6875C6.69531 10.5859 9.67969 6.82031 15.2891 6.82031C19.7969 6.82031 23.3047 10.0312 23.3047 14.3281C23.3047 18.8047 20.4766 22.4141 16.5547 22.4141C15.2344 22.4141 14 21.7266 13.5781 20.9219C13.5781 20.9219 12.9219 23.4063 12.7656 24.0156C12.4687 25.1406 11.6797 26.5547 11.1484 27.4219C12.3672 27.7969 13.6562 28 15 28C22.1797 28 28 22.1797 28 15C28 7.82031 22.1797 2 15 2Z" fill="white"/>
</svg>
