<svg width="32" height="32" viewBox="0 0 32 32" fill="none" xmlns="http://www.w3.org/2000/svg">
<g clipPath="url(#clip0_1156_10781)">
<path d="M25.6224 7.8517C25.4849 7.6798 25.2442 7.61104 25.0035 7.71418L24.1096 8.05799L21.3592 1.97257C21.256 1.76629 21.0841 1.66315 20.8778 1.66315H11.9388C11.7669 1.66315 11.6294 1.73191 11.5262 1.86943L6.47224 7.92047C6.36909 8.02361 6.33471 8.19551 6.36909 8.33304C6.40347 8.47056 6.47224 8.60808 6.57538 8.71123L11.6294 12.4587C11.87 12.6306 12.2138 12.5963 12.3857 12.3556L15.6863 7.88609L17.2678 10.7053L16.2708 11.221C16.0645 11.3242 15.9614 11.5305 15.9957 11.7367C16.0301 11.943 16.1676 12.1493 16.4083 12.1837L22.0468 13.5589C22.0812 13.5589 22.1155 13.5589 22.1843 13.5589C22.3562 13.5589 22.5281 13.4558 22.6312 13.3183L25.6568 8.47056C25.7943 8.26428 25.7599 8.02361 25.6224 7.8517ZM11.8357 11.2554L7.67557 8.16113L12.2138 2.72895H12.9358L15.1706 6.88904L11.8357 11.2554ZM21.8749 12.4587L18.0586 11.5305L18.2649 11.4273C18.4024 11.3586 18.5055 11.2554 18.5399 11.1179C18.5743 10.9804 18.5743 10.8428 18.5055 10.7053L16.2364 6.64837L14.1048 2.69457H20.4996L23.3189 8.95189C23.422 9.15818 23.6627 9.2957 23.869 9.26132L21.8749 12.4587Z" fill="#5A5A5A"/>
<path d="M13.7266 21.7416L8.15686 21.5009L9.60086 18.613L10.5635 19.163C10.7698 19.2662 11.0105 19.2662 11.1824 19.0943C11.3543 18.9568 11.423 18.7161 11.3199 18.5098L9.29143 13.0776C9.22267 12.8713 9.01638 12.7338 8.77572 12.7338L3.03411 12.9401C2.79345 12.9401 2.62154 13.112 2.55278 13.3183C2.48402 13.5246 2.58716 13.7653 2.75907 13.9028L3.54983 14.4529L0.077357 20.1601C-0.0257857 20.332 -0.0257857 20.5727 0.077357 20.7446L3.92802 26.4174L5.40639 28.6522C5.50954 28.7897 5.68144 28.8928 5.85334 28.8928H13.6922C14.0016 28.8928 14.2423 28.6522 14.2423 28.3427V22.2917C14.2423 22.0167 14.0016 21.776 13.7266 21.7416ZM4.75316 25.7298L1.17755 20.4351L4.78754 14.5904C4.92506 14.3841 4.89068 14.1434 4.71878 13.9715L8.46629 13.7996L9.84153 17.5128L9.63524 17.4096C9.49772 17.3409 9.36019 17.3065 9.22267 17.3752C9.08515 17.4096 8.982 17.5128 8.91324 17.6503L6.85039 21.776L4.75316 25.7298ZM13.1421 27.827H6.12839L5.44077 26.7612L7.64115 22.5668L13.1421 22.8074V27.827Z" fill="#5A5A5A"/>
<path d="M31.9484 19.9538L28.5103 12.8714C28.4416 12.7338 28.3384 12.6307 28.2009 12.5963C28.0634 12.5619 27.9259 12.5619 27.7883 12.6651L22.2874 15.725C22.0467 15.8625 21.9436 16.2063 22.0811 16.447L24.7628 21.2947L21.531 21.5697L21.4966 20.4695C21.4966 20.2289 21.3247 20.057 21.1185 19.9882C20.9122 19.9194 20.6715 19.9882 20.534 20.1601L16.9584 24.7328C16.8208 24.9047 16.8208 25.1797 16.924 25.3516L20.1214 30.0962C20.2245 30.2337 20.3965 30.3368 20.5684 30.3368C20.6027 30.3368 20.6715 30.3368 20.7059 30.3025C20.9122 30.2337 21.0841 30.0274 21.0841 29.8211L21.1185 28.8585H27.7883C27.9946 28.8585 28.2009 28.7209 28.2697 28.549L31.9484 20.4008C32.0172 20.2632 32.0172 20.0913 31.9484 19.9538ZM27.5133 27.827H20.6715C20.4308 27.827 20.2245 27.9989 20.1558 28.2052L18.0586 25.0766L20.4996 21.9479V22.1886C20.4996 22.3261 20.5684 22.4636 20.6715 22.5668C20.7746 22.6699 20.9122 22.7043 21.0841 22.7043L25.6911 22.2917L30.1606 21.9823L27.5133 27.827ZM30.6076 20.8477L25.8974 21.1915L23.2501 16.3782L27.7883 13.834L30.917 20.1945L30.6076 20.8477Z" fill="#5A5A5A"/>
</g>
<defs>
<clipPath id="clip0_1156_10781">
<rect width="32" height="32" fill="#5A5A5A"/>
</clipPath>
</defs>
</svg>
