<svg width="32" height="32" viewBox="0 0 32 32" fill="none" xmlns="http://www.w3.org/2000/svg">
<g clipPath="url(#clip0_1172_10831)">
<path d="M17.9999 2C16.9218 2 15.8984 2.375 15.1562 3.09375C14.4218 3.80469 13.9999 4.84375 13.9999 6V8.09375C11.0078 8.26563 8.29682 9.1875 6.20307 10.6719C5.58588 10.2969 4.89838 10.0703 4.20307 10.0234C3.03119 9.94531 1.80463 10.2969 0.968693 11.2266L0.953069 11.25L0.937443 11.2656C0.164006 12.2344 -0.148494 13.5391 0.0624432 14.8281C0.242131 15.9688 0.906193 17.0859 2.01557 17.8672C2.00776 17.9219 1.99994 17.9688 1.99994 18.0156C1.99994 20.8516 3.53901 23.3984 5.89838 25.1797C8.25776 26.9531 11.4609 28.0234 14.9999 28.0234C18.539 28.0234 21.7421 26.9531 24.1015 25.1797C26.4609 23.3984 27.9999 20.8516 27.9999 18.0156C27.9999 17.9688 27.9921 17.9219 27.9921 17.8672C29.0937 17.0859 29.7578 15.9688 29.9374 14.8359C30.1484 13.5391 29.8359 12.2344 29.0624 11.2656L29.039 11.25L29.0312 11.2266C28.2031 10.2969 26.9765 9.94531 25.8124 10.0156C25.1093 10.0625 24.414 10.2969 23.8046 10.6719C21.7031 9.1875 18.9921 8.26563 15.9999 8.09375V6C15.9999 5.3125 16.2187 4.85156 16.5546 4.53125C16.8906 4.20313 17.3671 4 17.9999 4C18.4687 4 19.164 4.375 20.2421 4.89844C21.3203 5.42188 22.7812 6 24.7499 6H25.9999C27.1015 6 27.9999 5.10156 27.9999 4C27.9999 2.89844 27.1015 2 25.9999 2C24.9218 2 24.039 2.875 24.0078 3.95313C22.8203 3.84375 21.9296 3.5 21.1171 3.10156C20.1406 2.625 19.2421 2 17.9999 2ZM14.9999 10.0156C18.1328 10.0156 20.9296 10.9766 22.8984 12.4609C24.8671 13.9453 25.9999 15.9063 25.9999 18.0156C25.9999 20.1328 24.8671 22.0938 22.8984 23.5781C20.9296 25.0625 18.1328 26.0234 14.9999 26.0234C11.8671 26.0234 9.07026 25.0625 7.10151 23.5781C5.13276 22.0938 3.99994 20.1328 3.99994 18.0156C3.99994 15.9063 5.13276 13.9453 7.10151 12.4609C9.07026 10.9766 11.8671 10.0156 14.9999 10.0156ZM25.9374 12.0156C26.5937 11.9766 27.1874 12.2031 27.5078 12.5469C27.8671 13.0078 28.0859 13.7812 27.9687 14.5156C27.9062 14.875 27.7812 15.2188 27.5781 15.5312C27.164 14.2812 26.4531 13.1328 25.5078 12.125C25.6562 12.0938 25.789 12.0234 25.9374 12.0156ZM4.06244 12.0156C4.21088 12.0312 4.34369 12.0937 4.48432 12.1328C3.54682 13.1328 2.83588 14.2812 2.42182 15.5312C2.21869 15.2188 2.09369 14.875 2.03119 14.5156C1.91401 13.7734 2.13276 13.0078 2.49213 12.5469C2.81244 12.2031 3.40619 11.9766 4.06244 12.0156ZM9.99994 14C8.89838 14 7.99994 14.8984 7.99994 16C7.99994 17.1016 8.89838 18 9.99994 18C11.1015 18 11.9999 17.1016 11.9999 16C11.9999 14.8984 11.1015 14 9.99994 14ZM19.9999 14C18.8984 14 17.9999 14.8984 17.9999 16C17.9999 17.1016 18.8984 18 19.9999 18C21.1015 18 21.9999 17.1016 21.9999 16C21.9999 14.8984 21.1015 14 19.9999 14ZM9.99994 20C10.5703 21.8594 12.7109 24 14.9999 24C17.289 24 19.4296 22 19.9999 20C18.9687 21.1406 16.9453 22 14.9999 22C13.0546 22 11.0312 21 9.99994 20Z" fill="white"/>
</g>
<defs>
<clipPath id="clip0_1172_10831">
<rect width="32" height="32" fill="white"/>
</clipPath>
</defs>
</svg>
