<svg width="32" height="32" viewBox="0 0 32 32" fill="none" xmlns="http://www.w3.org/2000/svg">
<path d="M14 2C11.8029 2 10 3.80294 10 6H4V7V9C4 9.90134 4.27039 10.7393 4.72266 11.5039C3.01156 13.5604 2 16.6035 2 20C2 24.3678 5.32801 28 9.5 28H15H20.5C24.672 28 28 24.3678 28 20C28 16.6035 26.9884 13.5604 25.2773 11.5039C25.7296 10.7393 26 9.90134 26 9V6H20C20 3.80294 18.1971 2 16 2H14ZM14 4H16C17.1149 4 18 4.88506 18 6H12C12 4.88506 12.8851 4 14 4ZM6 8H24V9C24 10.2066 23.172 11.4164 21.5547 12.3867C21.095 12.6625 20.5656 12.9015 20 13.1172V12H18V13.6797C17.0579 13.8722 16.06 14 15 14C13.94 14 12.9421 13.8722 12 13.6797V12H10V13.1172C9.43439 12.9015 8.90499 12.6625 8.44531 12.3867C6.82798 11.4164 6 10.2066 6 9V8ZM6.02344 13.082C6.44057 13.4564 6.90839 13.7982 7.41406 14.1016C8.17916 14.5606 9.06468 14.9177 10 15.2188V18H12V15.7109C12.9608 15.8807 13.9538 16 15 16C16.0462 16 17.0392 15.8807 18 15.7109V18H20V15.2188C20.9353 14.9177 21.8208 14.5606 22.5859 14.1016C23.0916 13.7982 23.5594 13.4564 23.9766 13.082C25.1699 14.7044 26 17.1911 26 20C26 23.3642 23.508 26 20.5 26H15H9.5C6.49199 26 4 23.3642 4 20C4 17.1911 4.83007 14.7044 6.02344 13.082Z" fill="white"/>
</svg>
