<svg width="32" height="32" viewBox="0 0 32 32" fill="none" xmlns="http://www.w3.org/2000/svg">
<path d="M2 1.98438V3.98438H6C6.42969 3.98438 6.79688 4.26562 6.9375 4.67188L8.80469 21.3359C8.97656 22.8437 10.2734 24 11.7891 24H24V22H11.7891C11.2734 22 10.8516 21.625 10.7969 21.1172L10.6719 20H23.3594C24.7813 20 26.0234 18.9844 26.3047 17.5937L28.2188 8H9.32031L8.89063 4.1875L8.85938 4.09375C8.47656 2.84375 7.3125 1.99219 6 1.98438H2ZM22 24C20.8984 24 20 24.8984 20 26C20 27.1016 20.8984 28 22 28C23.1016 28 24 27.1016 24 26C24 24.8984 23.1016 24 22 24ZM12 24C10.8984 24 10 24.8984 10 26C10 27.1016 10.8984 28 12 28C13.1016 28 14 27.1016 14 26C14 24.8984 13.1016 24 12 24ZM9.54688 10H25.7812L24.3438 17.1953C24.2422 17.6719 23.8438 18 23.3594 18H10.4453L9.54688 10Z" fill="white"/>
</svg>
