<svg width="40" height="40" viewBox="0 0 40 40" fill="none" xmlns="http://www.w3.org/2000/svg">
<path d="M28.5109 8.35568C28.3133 7.96048 27.8052 7.79111 27.41 8.01694C25.6881 8.89202 23.8814 9.59774 22.0183 10.1341C18.9979 11.0939 15.8927 12.0819 13.2392 14.933C11.0939 17.1912 10.1059 20.2964 10.5575 23.3733C10.8963 25.6034 11.9689 27.4947 13.5215 28.5674C12.9287 30.8821 13.0699 32.2654 13.0981 32.3783C13.1546 32.8017 13.4933 32.9146 13.8885 32.9146H13.9732C14.4248 32.8582 14.7636 32.6041 14.7071 32.1807C14.7071 32.1807 14.5942 31.108 15.0459 29.3296C15.7234 29.5554 16.4573 29.6683 17.163 29.6683C17.897 29.6683 18.6309 29.5554 19.3366 29.3578C22.2442 28.5674 24.9259 26.3938 26.6478 23.3733C29.9224 17.6429 28.6803 9.03317 28.6239 8.6662C28.6239 8.58151 28.5956 8.49682 28.5392 8.41214L28.5109 8.35568ZM25.18 22.5265C23.7121 25.1235 21.3409 27.0713 18.885 27.7488C17.7558 28.1157 16.5702 28.0875 15.4693 27.7205C16.3726 25.18 18.2075 21.6796 22.0748 17.6711C23.0064 16.6831 23.8814 15.6387 24.6436 14.5378C24.9259 14.0861 25.067 13.5498 24.7848 13.3239C24.5025 13.0981 24.079 13.3239 23.825 13.578C22.5829 14.933 21.4538 15.9492 20.8892 16.542C16.9936 20.6351 15.0176 24.192 14.0296 26.9019C13.0699 26.055 12.3924 24.7001 12.1665 23.1475C11.7996 20.5787 12.6464 17.9534 14.4248 16.0621C16.796 13.5215 19.5625 12.6464 22.5265 11.7149C24.1073 11.2632 25.6316 10.6704 27.1277 10.0212C27.3253 12.5053 27.5512 18.4615 25.2082 22.5547L25.18 22.5265ZM20.0141 0C8.94848 0 0 8.94848 0 20.0141C0 31.0797 8.94848 40.0282 20.0141 40.0282C31.0797 40.0282 40.0282 31.0797 40.0282 20.0141C40.0282 8.94848 31.0515 0 20.0141 0ZM33.2816 33.2534C31.5596 34.9753 29.5554 36.3303 27.3253 37.2618C25.0106 38.2498 22.5547 38.7297 20.0141 38.7297C17.4735 38.7297 15.0176 38.2216 12.7029 37.2618C10.4728 36.3303 8.4686 34.9753 6.74665 33.2534C5.0247 31.5314 3.66972 29.5272 2.73818 27.2971C1.75018 24.9824 1.27029 22.5265 1.27029 19.9859C1.27029 17.4453 1.77841 14.9894 2.73818 12.6747C3.66972 10.4446 5.0247 8.44037 6.74665 6.71842C8.4686 4.99647 10.4728 3.6415 12.7029 2.70995C15.0176 1.72195 17.4735 1.24206 20.0141 1.24206C22.5547 1.24206 25.0106 1.75018 27.3253 2.70995C29.5554 3.6415 31.5596 4.99647 33.2816 6.71842C35.0035 8.44037 36.3585 10.4446 37.2901 12.6747C38.2781 14.9894 38.7579 17.4453 38.7579 19.9859C38.7579 22.5265 38.2498 24.9824 37.2901 27.2971C36.3585 29.5272 35.0035 31.5314 33.2816 33.2534Z" fill="white"/>
</svg>
