<svg width="28" height="28" viewBox="0 0 28 28" fill="none" xmlns="http://www.w3.org/2000/svg">
<path d="M13.9531 0.0390625C13.7266 0.0546885 13.5156 0.148438 13.3437 0.296876L10.9297 2.48438L7.74219 1.79688C7.24219 1.69531 6.73438 1.98438 6.57812 2.46875L5.57812 5.57813L2.46875 6.57813C1.98438 6.73438 1.69531 7.23438 1.79688 7.73438L2.48438 10.9297L0.296875 13.3438C-0.046875 13.7266 -0.046875 14.3125 0.296875 14.6875L2.48438 17.1094L1.79688 20.3047C1.69531 20.8047 1.98438 21.3047 2.46875 21.4609L5.57812 22.4609L6.57812 25.5625C6.73438 26.0547 7.23438 26.3437 7.73438 26.2422L10.9297 25.5547L13.3437 27.7422C13.7266 28.0859 14.3125 28.0859 14.6875 27.7422L17.1094 25.5547L20.3047 26.2422C20.8047 26.3437 21.3047 26.0547 21.4609 25.5625L22.4609 22.4609L25.5625 21.4609C26.0547 21.3047 26.3437 20.8047 26.2422 20.3047L25.5547 17.1094L27.7422 14.6875C28.0859 14.3125 28.0859 13.7266 27.7422 13.3438L25.5547 10.9297L26.2422 7.73438C26.3437 7.23438 26.0547 6.73438 25.5625 6.57813L22.4609 5.57813L21.4609 2.46875C21.3047 1.98438 20.8047 1.69531 20.3047 1.79688L17.1094 2.48438L14.6875 0.296876C14.5156 0.140626 14.2891 0.0468765 14.0547 0.0390625C14.0234 0.0390625 13.9844 0.0390625 13.9531 0.0390625ZM14.0156 2.39063L16.1484 4.3125C16.3906 4.53125 16.7188 4.61719 17.0312 4.54688L19.8359 3.94531L20.7188 6.67969C20.8125 6.98438 21.0547 7.22656 21.3594 7.32813L24.0938 8.20313L23.4922 11.0156C23.4219 11.3281 23.5156 11.6484 23.7266 11.8906L25.6562 14.0156L23.7266 16.1484C23.5078 16.3906 23.4219 16.7188 23.4922 17.0312L24.0938 19.8359L21.3594 20.7188C21.0547 20.8125 20.8125 21.0547 20.7188 21.3594L19.8359 24.0938L17.0312 23.4922C16.7188 23.4219 16.3906 23.5078 16.1484 23.7266L14.0156 25.6562L11.8906 23.7266C11.6484 23.5156 11.3281 23.4219 11.0156 23.4922L8.20312 24.0938L7.32812 21.3594C7.22656 21.0547 6.98438 20.8125 6.67969 20.7188L3.95312 19.8359L4.54688 17.0312C4.61719 16.7188 4.53125 16.3906 4.3125 16.1484L2.39062 14.0156L4.3125 11.8906C4.53125 11.6563 4.61719 11.3281 4.54688 11.0156L3.95312 8.20313L6.67969 7.32813C6.98438 7.22656 7.22656 6.98438 7.32812 6.67969L8.20312 3.94531L11.0078 4.54688C11.3203 4.61719 11.6484 4.53125 11.8906 4.3125L14.0156 2.39063ZM19.3047 9.28125L12.9922 15.3672L9.4375 12.0234L8.0625 13.4766L13.0078 18.1328L20.6953 10.7188L19.3047 9.28125Z" fill="#33CC33"/>
</svg>
