<svg width="30" height="26" viewBox="0 0 30 26" fill="none" xmlns="http://www.w3.org/2000/svg">
<path d="M15 0.015625C13.9141 0.015625 12.8282 0.531249 12.211 1.5625L0.453169 21.2109C-0.796833 23.2891 0.804731 26 3.23442 26H26.7579C29.1954 26 30.7969 23.2891 29.5547 21.2109L17.7891 1.5625C17.1719 0.531249 16.086 0.015625 15 0.015625ZM15 1.98438C15.4141 1.98438 15.8282 2.1875 16.0782 2.59375L27.836 22.2344C28.3282 23.0547 27.7813 24 26.7579 24H3.23442C2.21879 24 1.67192 23.0547 2.1641 22.2344L13.9219 2.59375C14.1719 2.1875 14.586 1.98438 15 1.98438ZM13.9844 8V18H15.9844V8H13.9844ZM13.9844 20V22H15.9844V20H13.9844Z" fill="#FF3333"/>
</svg>
