<svg width="32" height="32" viewBox="0 0 32 32" fill="none" xmlns="http://www.w3.org/2000/svg">
<g clipPath="url(#clip0_1172_10834)">
<path d="M23.25 2C22.3672 2 21.5078 2.13281 20.7031 2.39063C20.1719 2.54688 19.8828 3.10938 20.0469 3.64063C20.2109 4.16406 20.7656 4.46094 21.2969 4.29688C21.9141 4.10156 22.5703 4 23.25 4C26.9688 4 30 7.10938 30 11C30 11.6094 29.9219 12.2031 29.7813 12.7578C29.6484 13.2969 29.9766 13.8359 30.5156 13.9688C31.0469 14.1016 31.5938 13.7813 31.7266 13.2422C31.9063 12.5234 32 11.7734 32 11C32 6.05469 28.0859 2 23.25 2ZM13.5625 6C11.3047 5.96094 7.89063 7.72656 4.85938 10.7109C1.83594 13.6953 0.0781317 16.8594 0.0781317 19.5938C0.0703193 25.4922 6.88282 28 13.5391 28C22.2656 28 28.0703 23.0078 28.0703 19.0391C28.0703 16.6406 26.0234 15.2812 24.1875 14.7188C23.7344 14.5859 23.4219 14.4922 23.6563 13.9062C24.1719 12.6406 24.2266 11.5469 23.6641 10.7656C22.625 9.29688 19.7734 9.375 16.5078 10.7188C16.5078 10.7188 15.4766 11.1641 15.7422 10.3594C16.2422 8.77344 16.1719 7.4375 15.3906 6.66406C14.9453 6.22656 14.3203 6.01563 13.5625 6ZM24 6C23.5313 6 23.0781 6.07813 22.6563 6.23438C22.3125 6.34375 22.0547 6.63281 21.9844 6.99219C21.9141 7.35156 22.0469 7.71875 22.3281 7.95313C22.6094 8.1875 22.9922 8.25 23.3359 8.10938C23.5391 8.03906 23.7578 8 24 8C25.1172 8 26 8.88281 26 10C26 10.2344 25.9609 10.4609 25.8828 10.6719C25.7656 11.0078 25.8359 11.3828 26.0703 11.6562C26.3047 11.9297 26.6641 12.0547 27.0156 11.9844C27.3672 11.9219 27.6563 11.6719 27.7734 11.3281C27.9219 10.9141 28 10.4609 28 10C28 7.80469 26.1953 6 24 6ZM12.9844 13.9219C17.5859 13.9922 21.7578 15.8516 22.0625 18.8594C22.4063 22.2969 19.1328 26 11.25 26H11C7.95313 26 4.35938 24.5234 4.01563 21.0859C3.66407 17.6484 5.68751 14.5156 11 14C11.6641 13.9375 12.3281 13.9062 12.9844 13.9219ZM11.8594 16.0156C9.64063 15.8594 7.37501 16.9531 6.43751 18.7031C5.33594 20.75 6.39844 23.0234 8.90626 23.7656C11.5078 24.5313 14.5703 23.3594 15.6406 21.1484C16.6875 18.9922 15.375 16.7656 12.8047 16.1562C12.4922 16.0781 12.1797 16.0391 11.8594 16.0156ZM12.3125 18.7031C12.6328 18.8125 12.7422 19.1406 12.5703 19.4219C12.3906 19.7109 11.9844 19.8516 11.6719 19.7344C11.3594 19.6172 11.2578 19.2969 11.4375 19.0156C11.6172 18.7344 12 18.5938 12.3125 18.7031ZM9.68751 19.3438C9.90626 19.3516 10.125 19.3906 10.3281 19.4688C11.1406 19.7812 11.4063 20.6406 10.9063 21.3828C10.3984 22.1172 9.32032 22.4453 8.50782 22.1016C7.70313 21.7734 7.46876 20.9062 7.96876 20.1875C8.34376 19.6562 9.03126 19.3438 9.68751 19.3438Z" fill="white"/>
</g>
<defs>
<clipPath id="clip0_1172_10834">
<rect width="32" height="32" fill="white"/>
</clipPath>
</defs>
</svg>
