<svg width="29" height="21" viewBox="0 0 29 21" fill="none" xmlns="http://www.w3.org/2000/svg">
<path d="M3.97656 0.0234375C2.32813 0.0234375 0.976562 1.375 0.976562 3.02344V17.0234C0.976562 18.6719 2.32813 20.0234 3.97656 20.0234H25.9766C27.6172 20.0234 28.9766 18.6719 28.9766 17.0234V3.02344C28.9766 1.375 27.625 0.0234375 25.9766 0.0234375H3.97656ZM3.97656 2.02344H25.9766C26.5391 2.02344 26.9766 2.46094 26.9766 3.02344V17.0234C26.9766 17.5859 26.5391 18.0234 25.9766 18.0234H3.97656C3.41406 18.0234 2.97656 17.5859 2.97656 17.0234V3.02344C2.97656 2.46094 3.41406 2.02344 3.97656 2.02344ZM11 3.98438V16.0234L21 10L11 3.98438ZM13 7.51563L17.125 10L13 12.4844V7.51563Z" fill="white"/>
</svg>
