<svg width="32" height="111" viewBox="0 0 32 111" fill="none" xmlns="http://www.w3.org/2000/svg">
<path d="M23.1916 87.7047H3.29949C2.42441 87.7047 1.58519 88.0559 0.966411 88.681C0.347636 89.3061 7.5344e-06 90.1539 7.5344e-06 91.0379V107.674C6.46524e-06 108.112 0.0853878 108.545 0.251293 108.949C0.417197 109.353 0.660353 109.72 0.966835 110.029C1.27332 110.337 1.63712 110.582 2.03739 110.749C2.43766 110.916 2.86654 111.001 3.29949 111H23.1916C25.52 111 27.753 110.066 29.3994 108.402C31.0458 106.739 31.9707 104.483 31.9707 102.131V96.5956C31.9736 95.4291 31.7487 94.2735 31.3088 93.1949C30.8689 92.1163 30.2227 91.136 29.4071 90.3101C28.5916 89.4842 27.6229 88.829 26.5563 88.3819C25.4897 87.9348 24.3463 87.7047 23.1916 87.7047ZM28.1006 102.094C28.1006 103.418 27.5805 104.688 26.6546 105.624C25.7287 106.561 24.4727 107.088 23.1623 107.09H3.87746V91.6217H23.1623C23.8114 91.6217 24.4542 91.751 25.0538 92.0022C25.6534 92.2534 26.1981 92.6215 26.6568 93.0855C27.1154 93.5495 27.479 94.1004 27.7268 94.7065C27.9745 95.3126 28.1016 95.9621 28.1006 96.6178V102.094ZM25.1742 61.6675H31.9561V64.6755L22.4307 71.2827H31.978V75.1997H16.7974L8.28165 81.0679H32.0146V84.9849H-0.0292625V82.0287L23.7622 65.6215H19.3726L25.1742 61.6675ZM31.9854 13.6283V19.9917C31.9854 20.429 31.9 20.8621 31.7341 21.2661C31.5682 21.6701 31.325 22.0371 31.0185 22.346C30.712 22.6549 30.3483 22.8997 29.948 23.0664C29.5477 23.2331 29.1188 23.3184 28.6859 23.3175H3.29949C2.42635 23.3175 1.58897 22.9671 0.971569 22.3434C0.354165 21.7197 0.00730831 20.8737 0.00730831 19.9917V3.33318C0.00730616 2.45044 0.353928 1.60375 0.971122 0.978874C1.58832 0.353994 2.42568 0.00195728 3.29949 0H31.9561V3.91704H3.90673V19.3856H28.1298V14.2122H16.0658V10.2952H28.6859C29.1216 10.2922 29.5536 10.3765 29.957 10.5432C30.3603 10.7098 30.7269 10.9556 31.0358 11.2662C31.3446 11.5767 31.5894 11.9461 31.7562 12.3528C31.9229 12.7595 32.0083 13.1955 32.0073 13.6357L31.9854 13.6283ZM28.6859 26.0594H3.29949C2.42568 26.0613 1.58832 26.4134 0.971122 27.0383C0.353928 27.6631 0.00730616 28.5098 0.00730831 29.3926V49.1108H3.88478V41.4984H28.1079V49.1108H31.9854V29.3704C31.9854 28.4902 31.6408 27.6458 31.0267 27.0213C30.4127 26.3968 29.5791 26.0431 28.7078 26.0372L28.6859 26.0594ZM3.88478 37.611V29.9543H28.1079V37.5888L3.88478 37.611ZM-0.0292625 51.8749H31.9488V54.8903L8.24508 71.2827H12.5981L6.97941 75.1997H-0.0292625V72.2435L9.56927 65.5919H-0.0292625V61.6749H15.2465L23.7915 55.7624H-0.0292625V51.8749Z" fill="white"/>
</svg>
