<svg width="591" height="591" viewBox="0 0 591 591" fill="none" xmlns="http://www.w3.org/2000/svg">
<g clipPath="url(#clip0_2_31)">
<path d="M101.648 0.528381C36.8351 65.3416 0.423386 153.247 0.423386 244.907C0.423386 336.567 36.8351 424.472 101.648 489.286C166.462 554.099 254.367 590.511 346.027 590.511C437.687 590.511 525.592 554.099 590.406 489.286L101.648 0.528381Z" stroke="#C42120" stroke-width="2.25" stroke-miterlimit="10"/>
<path d="M114.891 13.738C54.6009 75.2586 21.0253 158.087 21.4604 244.223C21.8954 330.36 56.3059 412.844 117.214 473.753C178.123 534.661 260.607 569.072 346.744 569.507C432.88 569.942 515.708 536.366 577.229 476.076L114.891 13.738Z" stroke="#C42120" stroke-width="2.25" stroke-miterlimit="10"/>
<path d="M133.385 32.3306C76.9883 88.7488 45.3138 165.26 45.3293 245.031C45.3448 324.803 77.0489 401.302 133.467 457.698C189.885 514.094 266.396 545.769 346.168 545.753C425.94 545.738 502.438 514.034 558.834 457.615L133.385 32.3306Z" stroke="#C42120" stroke-width="2.25" stroke-miterlimit="10"/>
<path d="M188.535 426.54C185.312 429.635 181.004 431.344 176.536 431.299C172.067 431.254 167.795 429.459 164.635 426.299C161.475 423.139 159.68 418.867 159.635 414.398C159.59 409.93 161.299 405.622 164.394 402.399C170.999 395.794 204.188 386.746 204.188 386.746C204.188 386.746 195.206 419.935 188.535 426.54Z" stroke="#C42120" stroke-width="2.25" stroke-miterlimit="10"/>
<path d="M312.408 382.948C310.806 387.187 307.584 390.616 303.453 392.48C299.323 394.344 294.62 394.491 290.381 392.888C286.142 391.285 282.713 388.064 280.849 383.933C278.985 379.802 278.838 375.1 280.441 370.861C283.743 362.044 310.163 340.281 310.163 340.281C310.163 340.281 315.744 374.131 312.408 382.948Z" stroke="#C42120" stroke-width="2.25" stroke-miterlimit="10"/>
<path d="M417.194 368.582C418.946 372.76 418.966 377.463 417.251 381.656C415.535 385.849 412.224 389.188 408.046 390.94C405.978 391.807 403.758 392.259 401.515 392.268C399.272 392.278 397.049 391.846 394.973 390.996C390.78 389.281 387.441 385.97 385.689 381.792C382.023 373.074 386.316 339.059 386.316 339.059C386.316 339.059 413.528 359.864 417.194 368.582Z" stroke="#C42120" stroke-width="2.25" stroke-miterlimit="10"/>
<path d="M295.368 480.138C294.093 484.487 291.144 488.151 287.168 490.325C283.192 492.499 278.515 493.004 274.166 491.729C269.818 490.455 266.154 487.505 263.98 483.529C261.806 479.553 261.3 474.877 262.575 470.528C265.217 461.446 289.985 437.735 289.985 437.735C289.985 437.735 297.944 471.089 295.368 480.138Z" stroke="#C42120" stroke-width="2.25" stroke-miterlimit="10"/>
<path d="M402.829 479.048C403.569 483.519 402.502 488.102 399.864 491.787C397.226 495.471 393.231 497.957 388.76 498.698C384.289 499.438 379.707 498.371 376.022 495.733C372.337 493.095 369.851 489.1 369.111 484.629C367.592 475.316 379.579 443.184 379.579 443.184C379.579 443.184 401.276 469.735 402.829 479.048Z" stroke="#C42120" stroke-width="2.25" stroke-miterlimit="10"/>
<path d="M500.877 430.04C502.292 431.857 503.324 433.941 503.912 436.167C504.501 438.393 504.633 440.714 504.3 442.993C503.968 445.271 503.179 447.458 501.98 449.424C500.78 451.389 499.196 453.091 497.322 454.429C495.447 455.766 493.322 456.71 491.074 457.205C488.825 457.699 486.5 457.734 484.237 457.307C481.975 456.879 479.823 455.999 477.909 454.718C475.996 453.438 474.361 451.783 473.104 449.855C467.622 442.193 464.187 408.079 464.187 408.079C464.187 408.079 495.395 422.379 500.877 430.04Z" stroke="#C42120" stroke-width="2.25" stroke-miterlimit="10"/>
<path d="M208.019 278.592C203.946 280.317 200.701 283.553 198.963 287.621C197.225 291.688 197.13 296.271 198.698 300.407C200.266 304.543 203.375 307.91 207.373 309.803C211.37 311.696 215.946 311.967 220.139 310.559C228.956 307.257 250.719 280.837 250.719 280.837C250.719 280.837 216.837 275.256 208.019 278.592Z" stroke="#C42120" stroke-width="2.25" stroke-miterlimit="10"/>
<path d="M222.418 173.806C220.349 172.939 218.13 172.487 215.887 172.478C213.643 172.468 211.42 172.9 209.344 173.75C207.268 174.599 205.38 175.849 203.787 177.428C202.194 179.008 200.928 180.885 200.06 182.954C199.193 185.022 198.741 187.242 198.732 189.485C198.722 191.728 199.154 193.951 200.004 196.027C200.853 198.103 202.103 199.991 203.682 201.584C205.262 203.177 207.139 204.444 209.208 205.311C217.926 208.977 251.941 204.684 251.941 204.684C251.941 204.684 231.136 177.439 222.418 173.806Z" stroke="#C42120" stroke-width="2.25" stroke-miterlimit="10"/>
<path d="M110.862 295.632C108.709 296.263 106.701 297.312 104.953 298.719C103.205 300.126 101.752 301.863 100.675 303.832C99.599 305.801 98.9209 307.962 98.6799 310.193C98.4388 312.424 98.6395 314.68 99.2705 316.834C99.9015 318.987 100.951 320.995 102.357 322.743C103.764 324.49 105.502 325.944 107.471 327.02C109.439 328.097 111.601 328.775 113.832 329.016C116.062 329.257 118.319 329.056 120.472 328.425C129.521 325.783 153.265 301.015 153.265 301.015C153.265 301.015 119.911 292.99 110.862 295.632Z" stroke="#C42120" stroke-width="2.25" stroke-miterlimit="10"/>
<path d="M111.952 188.172C109.676 187.641 107.316 187.582 105.017 188C102.719 188.418 100.53 189.304 98.5871 190.602C96.6443 191.9 94.9885 193.583 93.7224 195.546C92.4562 197.51 91.6067 199.713 91.2262 202.018C90.8458 204.324 90.9426 206.683 91.5106 208.949C92.0787 211.215 93.1058 213.341 94.5285 215.195C95.9513 217.048 97.7393 218.59 99.782 219.724C101.825 220.859 104.078 221.562 106.404 221.79C115.717 223.309 147.849 211.321 147.849 211.321C147.849 211.321 121.265 189.724 111.952 188.172Z" stroke="#C42120" stroke-width="2.25" stroke-miterlimit="10"/>
<path d="M160.96 90.1229C159.143 88.7084 157.059 87.676 154.833 87.0876C152.607 86.4993 150.286 86.3672 148.007 86.6994C145.729 87.0315 143.542 87.821 141.576 89.0203C139.611 90.2197 137.909 91.8041 136.572 93.6783C135.234 95.5525 134.29 97.6778 133.795 99.9264C133.301 102.175 133.266 104.5 133.693 106.763C134.121 109.025 135.001 111.178 136.282 113.091C137.562 115.004 139.217 116.639 141.145 117.896C148.84 123.378 182.954 126.813 182.954 126.813C182.954 126.813 168.621 95.6049 160.96 90.1229Z" stroke="#C42120" stroke-width="2.25" stroke-miterlimit="10"/>
</g>
<defs>
<clipPath id="clip0_2_31">
<rect width="591" height="591" fill="white"/>
</clipPath>
</defs>
</svg>
