<svg width="226" height="24" viewBox="0 0 226 24" fill="none" xmlns="http://www.w3.org/2000/svg">
<path d="M191.074 2.92284C191.766 2.56582 192.564 2.60545 193.229 2.72287C194.617 2.98469 196.031 2.63084 197.421 3.16241C198.361 3.52102 199.456 3.43218 200.482 3.54485C200.986 3.60038 201.488 3.6559 201.989 3.72096C202.606 3.80188 203.186 4.03832 203.854 3.89234C204.109 3.84372 204.373 3.8665 204.618 3.95843C204.863 4.05036 205.08 4.20817 205.248 4.41595C205.313 4.4937 205.436 4.5889 205.515 4.57462C206.85 4.32391 208.095 4.86187 209.366 5.09195C210.173 5.23794 210.941 5.60925 211.735 5.8552C212.266 6.02181 212.815 6.12495 213.346 6.29156C214.87 6.7676 216.387 7.25416 217.899 7.75135C218.682 8.00841 219.466 8.26709 220.229 8.58286C221.747 9.20964 223.264 9.85229 224.753 10.5394C225.351 10.8171 225.653 11.3438 225.663 12.1007C225.675 12.7354 225.524 13.432 225.967 14.0159C226.027 14.0953 225.938 14.365 225.848 14.492C225.146 15.4964 224.425 16.4866 223.612 17.6164C222.88 17.2991 222.071 17.0721 221.41 16.6183C219.824 15.525 217.886 15.2806 216.308 14.1445C215.66 13.6796 214.685 13.7447 213.949 13.3718C212.424 12.6006 210.715 12.5783 209.166 11.9262C207.966 11.4232 206.756 10.9741 205.419 10.9392C204.759 10.9104 204.119 10.6961 203.565 10.3188C203.004 9.93161 202.415 9.91259 201.826 9.7793C200.661 9.51748 199.571 8.99702 198.382 8.79391C196.54 8.47656 194.725 8.0005 192.881 7.69425C191.951 7.53557 191.06 7.22936 190.032 7.41819C189.188 7.57687 188.255 7.13094 187.353 7.01669C185.881 6.83104 184.404 6.69934 182.927 6.54066C181.97 6.44069 181.014 6.32647 180.056 6.24872C178.528 6.12495 177.002 5.98849 175.472 5.93136C174.763 5.90756 174.088 5.90599 173.416 5.59022C173.088 5.43154 172.657 5.52516 172.269 5.51088C170.795 5.45693 169.321 5.4426 167.852 5.33787C166.692 5.25536 165.576 4.96181 164.371 5.02052C163.028 5.08716 161.668 4.7905 160.315 4.68736C159.894 4.65562 159.462 4.79684 159.043 4.76034C157.963 4.66513 156.885 4.39377 155.81 4.4144C154.427 4.44296 153.063 3.77971 151.676 4.31762C151.607 4.34518 151.53 4.34518 151.461 4.31762C150.385 3.67498 149.185 3.90186 148.069 3.9685C147.34 4.01293 146.704 4.14942 146.025 3.75908C145.811 3.63689 145.418 3.91775 145.115 3.91775C144.104 3.9479 143.079 3.83206 142.089 3.98439C141.507 4.07325 140.945 4.28113 140.332 4.24146C139.693 4.20021 139.071 4.1415 138.3 3.72576C140.287 3.36556 142.135 3.80505 143.98 3.27506C143.743 2.77364 143.406 2.66579 143.038 2.73085C141.788 2.97423 140.507 2.97423 139.258 2.73085C139.081 2.71445 138.903 2.72402 138.728 2.75936C138.153 2.80855 137.567 2.95772 137.006 2.8879C136.32 2.8038 135.687 2.60071 135.044 3.10531C134.848 3.26398 134.437 3.12593 134.134 3.10531C133.959 3.0942 133.707 2.94663 133.625 3.02914C133.065 3.54326 132.513 3.23699 131.924 3.12591C131.175 2.98577 130.416 2.91359 129.656 2.91013C129.266 2.92519 128.887 3.04132 128.551 3.2481C127.698 3.74635 126.836 3.07836 125.996 3.33224C125.45 2.74037 124.72 3.37029 124.066 2.97677C123.544 2.65941 122.765 2.85617 122.146 2.65941C121.21 2.36427 120.359 2.55629 119.476 2.83715C119.124 2.93397 118.757 2.9486 118.4 2.88C117.696 2.76792 116.976 2.89117 116.344 3.23222C116.152 3.31804 115.945 3.36132 115.737 3.35921C114.709 3.38142 113.676 3.32107 112.658 3.42103C111.933 3.49244 111.283 2.83713 110.546 3.25128C110.512 3.26873 110.394 3.12115 110.312 3.04022C109.974 2.68002 109.6 2.68325 109.277 3.01489C108.747 3.56074 108.159 3.41951 107.54 3.2894C107.117 3.21125 106.689 3.16087 106.26 3.13862C105.597 3.0619 104.931 3.02218 104.264 3.01961C103.651 3.05269 103.042 3.13654 102.443 3.27034C102.065 3.34491 101.701 3.67973 101.346 3.23384C100.206 3.5274 98.936 3.00216 97.8738 3.89552C97.6371 4.09386 97.1788 4.05418 96.8253 4.03513C96.2183 4.01133 95.5992 3.859 94.9892 3.87646C93.5841 3.9193 92.1775 3.99548 90.7784 4.13353C90.2398 4.18748 89.7163 4.45092 89.1093 4.63816L88.9105 4.13036C88.5023 4.73651 88.0426 4.69682 87.6222 4.19381C87.1018 4.47626 86.6921 4.89837 86.0457 4.46042C85.8105 4.30174 85.3219 4.57625 84.9455 4.6191C84.1626 4.70637 83.3872 4.8206 82.586 4.75871C81.979 4.71428 81.3721 4.89204 80.7651 4.992C79.6423 5.17924 78.5269 5.41562 77.3995 5.56953C75.9808 5.76312 74.559 5.98213 73.1326 6.03766C71.0264 6.11859 68.9567 6.67234 66.8202 6.43909C66.0888 6.36133 65.3165 6.80882 64.5441 6.931C62.1679 7.30865 59.7855 7.64505 57.4123 7.9989C56.3163 8.16779 55.2328 8.41595 54.1697 8.74154C53.1075 9.05889 51.9846 9.15088 50.8875 9.33178C50.7525 9.35399 50.5704 9.25564 50.4748 9.31752C49.5977 9.88717 48.572 9.88716 47.6175 10.141C46.4036 10.4663 45.1517 10.6694 43.9211 10.9344C42.0365 11.3438 40.158 11.777 38.2719 12.1769C37.7453 12.288 37.1945 12.2753 36.6695 12.3927C34.6362 12.8433 32.5816 13.2306 30.5999 13.8415C29.8761 14.0636 29.0142 13.9049 28.3875 14.5729C28.2145 14.7586 27.7457 14.757 27.4528 14.6777C26.7366 14.4857 26.2495 14.8364 25.7639 15.2902L25.3087 14.5555V15.5076C24.7867 15.6075 24.2268 15.7027 23.673 15.8249C23.502 15.8699 23.3426 15.9533 23.2056 16.0693C22.4636 16.677 21.6882 16.2994 20.8036 16.3375L21.1981 15.5885C21.1055 15.5567 21.0372 15.5043 20.9902 15.5202C19.7444 15.947 18.6579 16.8404 17.2953 16.9213C16.611 16.9626 16.3287 17.4878 15.9539 18.2066L15.3045 17.4133C15.1801 17.81 15.0389 18.2637 14.916 18.6573C14.564 18.9254 14.2605 18.5098 13.8326 18.9223C13.1255 19.603 12.1104 19.9315 11.1802 20.4345L10.7659 19.7775L11.7735 19.1714L11.7098 18.9525L10.6081 19.2126C10.6734 19.7014 10.7326 20.1378 10.8024 20.6519C10.0813 20.7038 9.38212 20.9326 8.76146 21.3199C8.34114 21.5786 7.9891 22.0752 7.30172 21.9848C6.75698 21.9118 6.34121 22.5909 5.68418 22.7211C4.7616 22.9051 3.91185 23.4874 3.02417 23.8857C2.8672 23.9666 2.69098 23.9975 2.51737 23.9746C2.12418 23.8893 1.73996 23.7639 1.37021 23.6001C0.235197 23.0702 -0.125947 22.3069 0.0682806 21.0232C0.323204 19.3253 0.907408 18.0083 1.92255 16.9578C2.62359 16.7357 3.13646 16.5834 3.64327 16.412C5.48236 15.7884 7.31842 15.1553 9.15751 14.5348C11.1711 13.8541 13.1832 13.1718 15.2043 12.5133C17.2801 11.8373 19.3651 11.1884 21.4469 10.5298C22.415 10.2252 23.3846 9.92366 24.3558 9.62535C24.5971 9.53492 24.844 9.46178 25.0948 9.40639C26.1311 9.24771 27.1675 9.01925 28.21 8.97165C29.4967 8.91135 30.6591 8.33688 31.9124 8.1544C33.1961 7.97192 34.4768 7.75294 35.8213 7.75453L34.5709 8.23056C35.8911 8.34322 36.0049 8.28135 36.325 7.40386C36.9016 8.14806 37.0215 8.17503 37.8424 7.75771C38.504 7.42131 39.7589 7.34203 40.1595 7.54038C40.7983 7.32616 41.3249 7.09924 41.8726 6.97547C43.1776 6.67875 44.4856 6.38361 45.8042 6.18209C47.663 5.88695 49.5264 5.5378 51.3974 5.4537C53.7569 5.34898 56.0846 5.04436 58.4138 4.70161C60.1725 4.44297 61.922 4.1034 63.6883 3.90822C65.2755 3.73526 66.8855 3.78445 68.4711 3.59087C69.1525 3.50994 69.9278 3.82249 70.5333 3.22904C70.5636 3.20639 70.6009 3.19627 70.638 3.20053C72.1432 3.35921 73.5544 2.59754 75.0825 2.75463C76.1608 2.87158 77.2501 2.80943 78.31 2.57054C78.9533 2.4198 79.5542 2.62768 80.1718 2.46106C80.842 2.29632 81.5233 2.18547 82.2097 2.12945C82.6998 2.07868 83.1641 1.98979 83.6907 2.26272C84.0594 2.45313 84.6876 2.34206 85.1034 2.14371C85.9941 1.72163 86.9106 2.09294 87.7998 1.91522C87.8802 1.89935 88.0137 2.16752 88.1291 2.31192C88.3764 2.15324 88.6799 1.79142 88.8878 1.84379C90.0455 2.13575 91.0698 1.46775 92.179 1.43284C93.2882 1.39793 94.3519 1.19642 95.4399 1.08534C95.6933 1.05662 95.9494 1.07051 96.1986 1.12656C96.6933 1.24398 97.1409 1.08213 97.6204 1.01073C98.6735 0.852051 99.7448 0.866379 100.822 0.820362C100.994 0.820362 101.168 0.885399 101.338 0.877465C103.075 0.787018 104.813 0.696597 106.549 0.585523C107.351 0.534746 108.15 0.426826 108.952 0.368116C109.488 0.33162 110.03 0.383952 110.564 0.336349C111.055 0.290333 111.541 0.691837 112.072 0.228498C112.275 0.0507789 112.831 0.22847 113.193 0.358586C113.8 0.579148 114.083 0.539469 114.731 0.309386C115.312 0.111167 115.919 0.00421893 116.53 -0.00796902C117.137 -0.0254236 117.744 0.16026 118.351 0.182475C119.067 0.207864 119.785 0.142803 120.503 0.139629C121.413 0.139629 122.346 0.0111188 123.22 0.198358C124.324 0.434788 125.393 0.198321 126.475 0.239577C128.025 0.293528 129.586 0.147529 131.123 0.303033C132.446 0.436322 133.73 0.107884 135.033 0.209438C135.337 0.23324 135.751 0.0174473 135.792 0.536323C136.146 0.415728 136.467 0.218968 136.789 0.218968C139.557 0.218968 142.323 0.263382 145.089 0.282423C145.708 0.282423 146.33 0.196734 146.945 0.239577C147.268 0.261792 147.576 0.479187 147.978 0.642625C148.986 0.0396498 150.238 0.211022 151.459 0.166592C151.75 0.160547 152.04 0.182349 152.327 0.231675C153.162 0.369724 153.98 0.363337 154.778 0.0317004C154.812 0.0168188 154.848 0.00915391 154.885 0.00915391C154.922 0.00915391 154.958 0.0168188 154.992 0.0317004C155.675 0.46013 156.397 0.0126529 157.116 0.144355C157.835 0.276058 158.618 0.0951653 159.368 0.144355C160.875 0.242735 162.377 0.407797 163.882 0.5395C164.685 0.609318 165.494 0.631493 166.292 0.73622C166.806 0.804451 167.38 0.63788 167.826 1.09487C167.918 1.18849 168.181 1.27256 168.223 1.22496C168.847 0.518844 169.619 1.30116 170.272 0.982217C170.336 0.950481 170.436 0.906042 170.478 0.933017C171.503 1.59946 172.568 1.31539 173.644 1.12974C173.947 1.07896 174.282 1.23768 174.595 1.32653C175.367 1.5471 176.112 1.67087 176.941 1.48521C177.804 1.29321 178.762 1.14247 179.478 1.99774C179.666 1.90888 179.854 1.74701 180.044 1.74384C180.954 1.72638 181.865 1.728 182.766 1.77243C184.067 1.83431 185.373 1.87235 186.663 2.04531C188.015 2.22462 189.371 2.33572 190.723 2.50709C190.875 2.52454 190.991 2.79585 191.124 2.95135L190.689 3.09423C190.689 3.14818 190.689 3.20054 190.689 3.2529L191.256 3.38136L191.074 2.92284ZM214.138 12.0532C214.113 12.1166 214.088 12.1785 214.064 12.242C214.164 12.3238 214.27 12.3955 214.383 12.4562C215.597 12.9624 216.821 13.432 218.025 13.9684C219.495 14.6269 220.961 15.3028 222.398 16.0391C223.317 16.5151 223.739 16.3644 224.15 15.2299C223.032 14.2651 221.334 14.7872 220.433 13.7034C220.035 13.751 219.739 13.8621 219.475 13.8018C218.986 13.6817 218.506 13.5274 218.037 13.34C217.53 13.1559 217.038 12.9211 216.519 12.7545C215.742 12.5006 214.941 12.2848 214.146 12.0532H214.138ZM51.0848 8.26705L51.1121 7.991C50.8172 7.93927 50.527 7.86229 50.2441 7.76088C50.0924 7.69582 50.5142 7.29281 50.0181 7.27059C49.5219 7.24838 49.8663 7.70223 49.6584 7.81806C49.5075 7.92262 49.351 8.01796 49.1895 8.10365C48.3868 8.43053 47.6236 8.9351 46.6919 8.71612C46.5933 8.69232 46.4628 8.80973 46.2625 8.90177C46.437 9.02395 46.5265 9.13822 46.5933 9.12553C48.1 8.84784 49.5962 8.55585 51.0924 8.26705H51.0848ZM159.866 3.4941C159.866 3.41634 159.866 3.33542 159.866 3.25926C158.828 3.16052 157.782 3.23984 156.769 3.4941H159.866ZM32.8426 11.2613C32.9291 11.439 32.9943 11.8452 33.1962 11.9293C33.8031 12.1848 34.275 11.7818 34.8562 11.428L32.8426 11.2613ZM152.886 3.41948C152.166 2.71019 151.839 2.71813 151.003 3.41948H152.886ZM153.796 2.97204C154.14 3.65753 154.477 3.69874 155.573 3.20525L153.796 2.97204ZM38.9031 10.4679L38.9668 10.752L40.7452 10.2442C40.0988 10.1442 39.4478 10.0411 38.9061 10.46L38.9031 10.4679ZM21.5592 14.7808L21.9932 15.3806C22.1844 15.1854 22.3801 14.995 22.5622 14.7919C22.5835 14.7665 22.5288 14.6697 22.5015 14.5761L21.5592 14.7808ZM145.327 2.90223L145.309 3.19417H146.783C146.783 3.09579 146.783 2.99903 146.783 2.90223H145.327ZM43.9378 9.44923C43.956 9.54603 43.9758 9.64121 43.994 9.738C44.3612 9.6904 44.7451 9.69679 44.9757 9.19061L43.9378 9.44923ZM210.548 11.0947C210.526 11.0233 210.504 10.9535 210.482 10.8837H209.673L209.996 11.5184L210.548 11.0947ZM133.518 0.748927C134.106 1.48043 134.225 1.48362 134.47 0.840972L133.518 0.748927ZM9.45795 19.868L9.53382 20.0806C9.6628 20.0648 9.81758 19.9933 9.91773 20.0425C10.2318 20.2012 10.3062 20.014 10.2834 19.7648C10.2834 19.7077 10.0315 19.6252 9.91013 19.6458C9.74988 19.6965 9.59755 19.7714 9.45795 19.868ZM42.642 8.14332L42.8043 8.22266C42.8954 8.06398 42.9864 7.9053 43.0759 7.74663L42.8119 7.63234C42.7482 7.80054 42.689 7.97195 42.6344 8.14332H42.642ZM160.732 3.36238L160.664 3.62736C160.808 3.66684 160.954 3.69863 161.101 3.72258C161.119 3.72258 161.151 3.59719 161.177 3.52896L160.732 3.36238Z" fill="#EF4C49"/>
</svg>
